<?xml version="1.0" standalone="no"?>
<!DOCTYPE svg PUBLIC "-//W3C//DTD SVG 20010904//EN"
 "http://www.w3.org/TR/2001/REC-SVG-20010904/DTD/svg10.dtd">
<svg version="1.0" xmlns="http://www.w3.org/2000/svg"
 width="58.000000pt" height="58.000000pt" viewBox="0 0 58.000000 58.000000"
 preserveAspectRatio="xMidYMid meet">
<metadata>
Created by potrace 1.16, written by Peter Selinger 2001-2019
</metadata>
<g transform="translate(0.000000,58.000000) scale(0.100000,-0.100000)"
fill="#000000" stroke="none">
<path d="M0 469 c0 -71 4 -108 10 -104 5 3 10 -1 10 -9 0 -9 -4 -16 -8 -16 -4
0 -8 -25 -8 -55 1 -30 5 -55 10 -55 6 0 5 -5 -2 -12 -8 -8 -12 -48 -12 -115
l0 -103 110 0 c67 0 110 4 110 10 0 6 5 10 11 10 5 0 8 -3 6 -7 -3 -5 73 -10
169 -11 l174 -4 0 109 c0 73 -3 103 -10 93 -8 -12 -10 -9 -10 12 0 15 4 29 8
32 5 3 6 28 2 55 -3 27 -3 48 2 45 4 -3 8 49 8 115 l0 121 -102 -1 c-57 -1
-95 -3 -85 -6 9 -2 17 -9 17 -14 0 -5 7 -9 17 -9 9 0 33 -17 54 -39 21 -21 40
-37 42 -34 3 2 7 -3 10 -11 4 -10 1 -13 -9 -9 -10 4 -12 0 -8 -11 3 -9 9 -14
13 -12 15 9 32 -12 37 -45 l4 -34 -18 33 -18 33 4 -66 c9 -146 -82 -258 -222
-272 -140 -14 -260 85 -273 226 -9 95 23 159 111 222 39 29 42 38 5 19 -10 -6
-19 -8 -19 -6 0 3 12 12 28 20 25 14 22 15 -70 16 l-98 0 0 -111z m100 41 c-8
-5 -11 -10 -5 -10 5 0 -1 -11 -15 -25 -39 -38 -47 -50 -42 -63 2 -6 -1 -12 -8
-12 -6 0 -8 -5 -4 -12 4 -7 3 -8 -4 -4 -12 7 -6 32 13 56 7 8 15 23 18 33 4
10 11 16 16 13 5 -3 11 3 14 14 3 11 11 20 19 20 10 0 9 -3 -2 -10z m-70 -309
c0 -6 -4 -13 -10 -16 -5 -3 -10 1 -10 9 0 9 5 16 10 16 6 0 10 -4 10 -9z m523
-46 c-7 -21 -13 -19 -13 6 0 11 4 18 10 14 5 -3 7 -12 3 -20z m-490 -44 c-2
-6 2 -11 8 -11 6 0 24 -11 41 -25 19 -16 24 -25 14 -25 -8 0 -31 16 -51 35
-37 37 -43 50 -22 42 6 -2 11 -10 10 -16z m453 -8 c-4 -23 -81 -78 -121 -87
-28 -6 -29 -5 -10 9 10 8 24 14 29 12 6 -2 19 5 30 15 11 10 26 18 33 18 7 0
13 6 13 13 0 11 19 37 26 37 1 0 1 -8 0 -17z m-346 -73 c0 -13 -11 -13 -30 0
-12 8 -11 10 8 10 12 0 22 -4 22 -10z"/>
<path d="M230 450 c-10 -6 -11 -10 -2 -10 6 0 12 -7 12 -16 0 -8 5 -12 10 -9
8 5 8 11 0 20 -8 10 -7 14 2 18 7 3 9 6 3 6 -5 0 -17 -4 -25 -9z"/>
<path d="M327 443 c-11 -10 -8 -33 4 -33 6 0 9 6 6 14 -3 8 -1 17 6 20 7 3 8
5 1 5 -6 1 -14 -2 -17 -6z"/>
<path d="M263 223 c9 -2 25 -2 35 0 9 3 1 5 -18 5 -19 0 -27 -2 -17 -5z"/>
</g>
</svg>
