<svg width="84" height="17" viewBox="0 0 84 17" fill="none" xmlns="http://www.w3.org/2000/svg">
<path d="M65.2908 12.9309H67.1398V0.451231H65.2908V12.9309ZM81.944 4.94656L79.8246 10.3573H79.7612L77.5615 4.94656H75.5699L78.8684 12.5087L76.9888 16.7155H78.916L84 4.94656H81.944ZM71.4589 11.5134C70.8525 11.5134 70.0083 11.2089 70.0083 10.4532C70.0083 9.49081 71.0596 9.12144 71.9682 9.12144C72.7807 9.12144 73.1641 9.29814 73.6575 9.53873C73.5139 10.6948 72.526 11.5134 71.4589 11.5134ZM71.6818 4.67403C70.3432 4.67403 68.956 5.26801 68.3833 6.58477L70.0241 7.27459C70.3749 6.58477 71.0278 6.35915 71.7135 6.35915C72.6697 6.35915 73.6417 6.93716 73.6575 7.96541V8.09319C73.3226 7.90052 72.6063 7.61202 71.7294 7.61202C69.9607 7.61202 68.1593 8.59134 68.1593 10.4212C68.1593 12.0914 69.6099 13.1675 71.2349 13.1675C72.4784 13.1675 73.1641 12.6055 73.5941 11.9466H73.6575V12.91H75.4421V8.12514C75.4421 5.90992 73.8012 4.67403 71.6818 4.67403ZM60.2554 6.46597H57.6256V2.18827H60.2554C61.6376 2.18827 62.4223 3.3413 62.4223 4.32662C62.4223 5.29397 61.6376 6.46597 60.2554 6.46597ZM60.2078 0.451231H55.7777V12.9309H57.6256V8.20301H60.2078C62.2569 8.20301 64.2713 6.70756 64.2713 4.32662C64.2713 1.94568 62.2569 0.451231 60.2078 0.451231ZM36.05 11.5154C34.7728 11.5154 33.7036 10.4382 33.7036 8.95872C33.7036 7.46327 34.7728 6.36913 36.05 6.36913C37.3113 6.36913 38.3002 7.46327 38.3002 8.95872C38.3002 10.4382 37.3113 11.5154 36.05 11.5154ZM38.1734 5.64537H38.1089C37.6938 5.14722 36.8962 4.69699 35.8904 4.69699C33.7829 4.69699 31.8518 6.56181 31.8518 8.95872C31.8518 11.3387 33.7829 13.1885 35.8904 13.1885C36.8962 13.1885 37.6938 12.7383 38.1089 12.2231H38.1734V12.8351C38.1734 14.4593 37.3113 15.3279 35.9221 15.3279C34.7886 15.3279 34.0861 14.5073 33.7988 13.8154L32.1867 14.4913C32.6494 15.6174 33.879 17 35.9221 17C38.0931 17 39.9291 15.7132 39.9291 12.5775V4.95355H38.1734V5.64537ZM41.2063 12.9309H43.0582V0.450233H41.2063V12.9309ZM45.787 8.81396C45.7395 7.17376 47.0484 6.33719 47.9897 6.33719C48.7249 6.33719 49.3471 6.70656 49.5542 7.23765L45.787 8.81396ZM51.5339 7.39838C51.1832 6.45 50.1131 4.69699 47.9263 4.69699C45.7553 4.69699 43.952 6.41705 43.952 8.94274C43.952 11.3227 45.7395 13.1885 48.1333 13.1885C50.0655 13.1885 51.1832 11.9985 51.6459 11.3067L50.2092 10.3414C49.7306 11.0492 49.0756 11.5154 48.1333 11.5154C47.192 11.5154 46.5212 11.0811 46.0902 10.2295L51.7252 7.88056L51.5339 7.39838ZM6.64065 5.99976V7.80069H10.9181C10.7903 8.81396 10.4554 9.5537 9.94513 10.0678C9.32188 10.6958 8.34788 11.3876 6.64065 11.3876C4.00599 11.3876 1.94701 9.24822 1.94701 6.59475C1.94701 3.94028 4.00599 1.80192 6.64065 1.80192C8.06153 1.80192 9.09894 2.36497 9.86487 3.08873L11.1262 1.8179C10.0561 0.788654 8.63622 0 6.64065 0C3.03298 0 0 2.95995 0 6.59475C0 10.2295 3.03298 13.1885 6.64065 13.1885C8.58767 13.1885 10.0561 12.5446 11.2055 11.3387C12.3876 10.1487 12.7542 8.47654 12.7542 7.12485C12.7542 6.70656 12.7225 6.32122 12.6581 5.99976H6.64065ZM17.6182 11.5154C16.341 11.5154 15.2392 10.4542 15.2392 8.94274C15.2392 7.41435 16.341 6.36913 17.6182 6.36913C18.8945 6.36913 19.9963 7.41435 19.9963 8.94274C19.9963 10.4542 18.8945 11.5154 17.6182 11.5154ZM17.6182 4.69699C15.2868 4.69699 13.3873 6.48194 13.3873 8.94274C13.3873 11.3876 15.2868 13.1885 17.6182 13.1885C19.9487 13.1885 21.8482 11.3876 21.8482 8.94274C21.8482 6.48194 19.9487 4.69699 17.6182 4.69699ZM26.846 11.5154C25.5688 11.5154 24.467 10.4542 24.467 8.94274C24.467 7.41435 25.5688 6.36913 26.846 6.36913C28.1232 6.36913 29.224 7.41435 29.224 8.94274C29.224 10.4542 28.1232 11.5154 26.846 11.5154ZM26.846 4.69699C24.5155 4.69699 22.6161 6.48194 22.6161 8.94274C22.6161 11.3876 24.5155 13.1885 26.846 13.1885C29.1765 13.1885 31.0759 11.3876 31.0759 8.94274C31.0759 6.48194 29.1765 4.69699 26.846 4.69699Z" fill="white"/>
</svg>
