<svg width="190" height="30" viewBox="0 0 190 30" fill="none" xmlns="http://www.w3.org/2000/svg">
<path d="M18.5389 3.34829C18.3764 4.59812 16.4661 6.43945 14.2227 6.53263C11.9114 6.5934 9.45932 4.904 7.04513 4.96882C5.7554 5.00325 4.25162 5.41041 4.1893 6.61163C4.17304 7.57382 5.24059 8.01541 6.85818 7.99921C8.2319 7.93438 8.53808 7.80272 9.6246 7.30238C9.08269 7.9992 8.01243 8.43877 6.84734 8.51777C4.91545 8.48739 3.97524 7.55761 3.80725 6.50224C3.67991 5.2828 5.22433 2.98772 8.61395 2.98975C11.6405 2.98772 14.0736 4.39961 15.7888 4.42999C16.9945 4.41581 17.7369 3.92155 18.5389 3.34829Z" fill="black"/>
<path d="M15.2171 8.58878C15.9378 8.59486 16.6125 9.07696 16.6125 9.73328C16.6125 10.3248 15.9107 10.7927 15.2116 10.7907C14.4747 10.7886 13.361 10.185 14.1522 9.2694C14.1522 9.2694 12.9925 9.66035 13.3204 10.655C14.4123 11.2768 15.9568 12.2471 15.6533 13.8737C15.3119 15.6988 11.7028 16.1404 11.1176 17.7468C10.4835 16.6043 9.51894 16.0675 8.27527 16.0776C6.15913 16.0938 4.90733 17.366 4.95881 18.2978C5.04552 19.7664 6.31087 20.3862 9.03935 20.3356C11.6161 20.2384 13.166 19.4058 14.22 18.1134C13.884 19.0311 12.5319 21.1702 8.86595 21.2026C5.41672 21.1702 4.30311 19.2762 4.26247 17.9048C4.30582 15.3585 7.00992 14.3457 8.84427 14.3295C10.8195 14.3113 11.6595 14.9838 12.8164 15.8812C12.8164 15.8812 13.4505 14.8481 12.7162 13.9082C11.3804 12.1985 9.17754 12.5469 8.66815 10.4301C8.24546 8.66576 11.4617 6.80823 12.4235 6.59351C11.6838 7.17082 10.4835 7.8089 11.2449 9.25522C11.5755 9.88925 12.9302 10.3997 12.9302 10.3997C12.9086 9.85684 13.5372 8.57055 15.2171 8.58878Z" fill="black"/>
<path d="M17.8534 9.59149L19.6119 7.73193C19.6119 7.73193 21.0046 7.87778 21.7443 9.17623L23.1776 7.77447C23.1776 7.77447 24.256 9.05064 25.7327 7.85145C25.7327 7.85145 25.0391 9.89534 23.2616 9.95408C22.6249 9.97434 21.9069 9.57934 21.9069 9.57934L21.9042 15.2066C21.9042 15.2066 21.7795 15.8609 22.9988 16.0655C22.9988 16.0655 21.7822 17.0054 20.9558 17.923C19.9181 16.973 18.6771 16.2194 18.6771 16.2194C18.6771 16.2194 19.2488 16.0655 19.2542 15.4396L19.2597 9.95206C19.2597 9.95206 19.1323 9.09723 17.8534 9.59149Z" fill="black"/>
<path fill-rule="evenodd" clip-rule="evenodd" d="M30.5475 7.79077C30.5475 7.79077 28.594 9.01427 26.8816 9.46194C25.5485 9.81035 25.5837 10.7584 25.5837 10.7584L25.5891 15.8873C25.5891 15.8873 25.2721 16.8698 28.0087 17.9819C28.0087 17.9819 28.7945 16.9305 29.9162 16.0757C29.9162 16.0757 30.0978 17.3742 31.9186 17.8806C31.9186 17.8806 32.4415 16.8131 33.5822 16.179C33.0674 16.0068 32.3656 15.8002 32.3629 14.9839L32.344 9.96836C32.344 9.96836 32.2871 9.77592 32.7964 9.36471L30.5475 7.79077ZM28.7647 9.12973C28.193 9.33432 28.025 9.73135 28.0439 10.1264V15.0325C28.025 15.4741 28.3826 15.9967 28.9977 15.9967C29.8431 15.9967 29.8485 15.2857 29.8485 15.2857L29.8431 10.1892C29.8431 10.1892 29.9081 9.69894 28.7647 9.12973Z" fill="black"/>
<path d="M36.6142 7.84945C35.7634 8.7691 34.6064 9.79003 34.6064 9.79003C34.6064 9.79003 35.8338 9.91157 35.785 10.58L35.8013 15.391C35.7932 16.1283 35.1781 16.1648 35.1781 16.1648C35.1781 16.1648 36.3622 16.8879 37.1452 17.9514C37.1452 17.9514 38.0041 16.8251 38.9362 16.1425C38.9362 16.1425 38.3076 16.1648 38.3076 15.3403L38.2886 10.5942C38.3049 10.3106 38.7953 9.8508 39.2207 9.8508C40.0905 9.8508 40.2558 10.3734 40.2368 10.7867V15.705C40.2178 16.3714 40.2205 17.0419 41.96 17.9291C41.96 17.9291 42.8596 16.8515 43.9841 16.1364C43.9841 16.1364 42.7837 16.2276 42.7837 15.2127L42.7702 10.2478C42.7702 10.2478 42.7702 9.58949 43.0872 9.42946C43.0872 9.42946 41.83 8.72454 40.86 7.81299L38.3537 9.89739C37.9093 8.09861 36.6142 7.84945 36.6142 7.84945Z" fill="black"/>
<path fill-rule="evenodd" clip-rule="evenodd" d="M50.5194 4.29039C50.2729 4.06554 49.9423 4.40585 49.9423 4.40585L48.6553 5.58479L48.6444 4.9467C48.6173 4.42813 48.9154 3.89944 49.6036 3.49431C49.6036 3.49431 47.6338 3.36264 47.0025 5.1756C47.0025 5.1756 46.2546 4.82922 45.7696 4.86365C45.9214 5.09255 45.9268 5.43691 45.9268 5.43691V8.13509L45.2684 8.13104V9.00005L45.9566 8.996L45.943 15.3849C45.9485 15.9724 45.3551 16.1385 45.3551 16.1385C45.3551 16.1385 46.6069 16.7928 47.436 18.0993C47.436 18.0993 48.1567 16.8859 49.9477 16.2175C49.9477 16.2175 48.6607 16.021 48.639 15.2695L48.6444 8.99802L49.7824 9.00005V8.13104L48.6607 8.13307L48.658 7.98722L50.2376 6.95211C51.9013 5.72658 50.9963 4.50308 50.5194 4.29039ZM48.6363 5.85622V7.7725C48.6363 7.7725 50.3785 6.80221 48.6363 5.85622Z" fill="black"/>
<path d="M56.5996 3.11548C56.5996 3.11548 55.4779 5.61514 52.2373 5.72858L52.2481 7.98719H51.4651V8.92102L52.2237 8.92304L52.2373 21.5713H52.7792V19.1546C52.7792 19.1546 52.7277 18.1033 53.5947 17.9899L54.3372 17.9068C54.3372 17.9068 54.9712 17.9129 54.9549 17.3903L54.9414 8.93317L56.2609 8.9271V7.99124L54.9901 7.98719L54.9874 5.14316C54.9874 5.14316 58.2091 7.183 59.3633 3.31399C59.3633 3.31399 58.0627 4.88793 56.5996 3.11548Z" fill="black"/>
<path d="M59.4392 7.79467C58.4881 8.87232 57.426 9.41317 57.426 9.41317C57.426 9.41317 58.293 9.54079 58.312 10.2599L58.3554 15.6623C58.3581 16.2315 57.8677 16.349 57.8677 16.349C58.8241 16.9304 59.9919 18.0303 59.9919 18.0303C59.9919 18.0303 61.9644 16.264 62.9399 15.8041C62.5903 17.0742 64.7309 17.9797 64.7309 17.9797L66.4487 16.1991C66.4487 16.1991 65.5329 16.0249 65.4922 15.2815L65.4733 10.1566C65.4922 9.57117 65.9827 9.28555 65.9827 9.28555C64.6658 8.66773 64.2459 7.69946 64.2459 7.69946C63.5441 8.81155 62.2923 9.42938 62.2923 9.42938C62.2923 9.42938 62.8694 9.71499 62.8694 10.1262L62.883 15.0627C62.8884 15.4436 62.5524 15.9824 61.829 15.9824C61.2356 15.9824 60.9402 15.4436 60.8969 15.2066L60.8563 9.76564C60.8563 8.54416 59.4392 7.79467 59.4392 7.79467Z" fill="black"/>
<path d="M67.7547 9.67048L69.5321 7.80485C69.5321 7.80485 70.6783 8.12288 71.2608 9.29979L72.3473 7.78662C72.3473 7.78662 73.1006 8.8663 74.2007 7.8798C74.2007 7.8798 74.3253 10.2863 72.5722 10.2984C71.8623 10.3025 71.3502 9.81228 71.3502 9.81228L71.3475 15.2066C71.3475 15.2066 71.1741 16.26 72.7917 16.1931C72.7917 16.1931 71.3177 16.9872 70.6187 18C69.5809 17.05 68.1503 16.3207 68.1503 16.3207C68.1503 16.3207 68.8304 16.185 68.8656 15.5976L68.8412 10.5719C68.8412 10.5719 68.9225 9.81026 67.7547 9.67048Z" fill="black"/>
<path d="M75.6963 8.09043L75.1625 8.08638L75.1598 9.07287L75.7153 9.06882L75.7451 15.7049C75.7722 16.1485 75.3224 16.3713 75.3224 16.3713C75.3224 16.3713 76.3493 16.9669 77.3058 17.8703C78.3029 16.8149 79.7145 16.2457 79.7145 16.2457C79.7145 16.2457 78.3029 16.1323 78.3029 15.4983L78.2839 9.05667L79.6685 9.06274L79.663 8.08638L78.3029 8.09043L78.2893 5.14917L75.7071 5.85207L75.6963 8.09043Z" fill="black"/>
<path fill-rule="evenodd" clip-rule="evenodd" d="M85.8624 7.7522C84.9033 8.48346 84.1636 8.52397 83.5404 8.76908C82.4701 9.19244 80.9826 9.48211 80.9961 10.977L81.0043 15.4072C81.0259 17.291 83.115 17.4207 84.3749 17.9332C85.2203 16.736 87.0465 15.7536 87.0465 15.7536L86.7674 15.6259C86.7674 15.6259 86.109 16.1587 85.2393 16.1324C83.6271 16.0858 83.6108 14.8278 83.6108 14.8278V12.8994C83.6108 12.8994 85.7324 12.2228 86.8541 11.3336C87.3364 10.9487 87.5098 10.6914 87.5315 10.1526C87.5694 9.22485 86.5561 8.59487 85.8624 7.7522ZM83.9143 9.02229C83.9143 9.02229 83.5892 9.16003 83.6108 10.2519L83.6081 12.7272C83.6081 12.7272 87.0357 11.7043 83.9143 9.02229Z" fill="black"/>
<path d="M88.0436 9.39095C88.8754 8.90074 89.9674 7.67319 89.9674 7.67319C89.9674 7.67319 90.9482 7.93652 91.669 9.21066C92.2596 8.6374 92.853 7.65901 92.853 7.65901C92.853 7.65901 93.9422 9.079 95.1913 7.65698C95.1913 7.65698 94.9258 10.0594 93.0887 10.1891C92.3816 10.2397 91.7367 9.553 91.7367 9.553V15.0567C91.7367 15.9561 93.2025 16.102 93.2025 16.102C93.2025 16.102 91.6933 16.7238 90.9482 17.8683C89.9105 16.9183 88.7183 16.185 88.7183 16.185C88.7183 16.185 89.1626 16.1202 89.1952 15.5327L89.2033 10.2822C89.2033 9.30182 88.0436 9.39095 88.0436 9.39095Z" fill="black"/>
<path fill-rule="evenodd" clip-rule="evenodd" d="M103.339 6.18642C103.339 6.18642 102.515 6.60776 101.859 6.60776C101.234 6.60776 100.738 6.2006 100.74 5.78534C100.743 5.17765 101.616 4.87177 102.428 4.87177C104.081 4.87177 104.417 6.58548 104.417 6.58548L100.545 14.9049C98.5782 14.9211 96.9254 16.3613 96.9471 18.1014C96.9688 19.9042 98.9576 21.1885 101.561 21.1763C105.566 21.1581 106.75 18.3242 106.75 18.3242C105.967 18.94 105.217 20.3113 101.477 20.2992C99.6051 20.2931 97.5649 19.7158 97.5215 18.4984C97.4971 17.8178 98.478 17.1209 99.6566 17.1209C101.055 17.1209 101.9 17.8481 101.9 17.8481L104.767 15.5571L104.545 15.3748L103.848 15.8914C102.811 15.0487 101.158 14.915 101.158 14.915L102.347 12.31L106.189 12.314L107.506 16.4869C107.913 17.5808 108.696 17.2972 110.018 18.0345L111.476 15.8205C111.476 15.8205 110.346 16.0453 109.988 15.0791L106.902 5.2526C106.902 5.2526 106.281 2.82991 103.128 2.82788C101.315 2.82788 99.681 3.74753 99.681 5.15739C99.681 6.06489 100.673 6.86705 101.878 6.86705C102.832 6.86705 103.339 6.18642 103.339 6.18642ZM104.65 7.31472L102.686 11.6132L105.97 11.6192L104.65 7.31472Z" fill="black"/>
<path d="M112.635 15.3808C112.662 15.8265 111.806 16.029 111.806 16.029C111.806 16.029 113.015 16.8677 114.055 17.996C114.895 16.7299 116.296 16.1871 116.296 16.1871C116.296 16.1871 115.266 16.1324 115.266 15.4983V3.85889L112.635 4.79474V15.3808Z" fill="black"/>
<path d="M118.331 15.326C118.328 15.8385 117.764 16.0958 117.764 16.0958C117.764 16.0958 118.94 16.979 119.799 18.0121C120.677 16.6771 122.089 16.1788 122.089 16.1788C122.089 16.1788 120.953 16.1322 120.953 15.4982V3.68457L118.331 4.79868V15.326Z" fill="black"/>
<path fill-rule="evenodd" clip-rule="evenodd" d="M128.936 7.63672C125.942 9.25117 123.88 8.84401 123.855 10.3815L123.88 15.8487C123.874 16.8514 124.953 17.3903 126.115 17.9615L128.223 16.0918L128.229 17.1269C128.212 18.3403 129.418 18.2755 129.399 19.4463C129.385 20.3173 128.462 20.7326 127.535 20.7286C125.89 20.7225 125.476 20.0257 125.476 20.0257C125.476 20.0257 125.503 20.1269 125.92 20.1209C126.73 20.1087 127.24 19.7643 127.237 19.183C127.231 18.6259 126.646 18.2451 125.917 18.2552C125.148 18.2654 124.584 18.7029 124.587 19.1911C124.592 19.9689 125.207 20.998 127.719 20.9899C130.223 20.9838 131.935 19.5739 131.935 18.4679C131.935 17.605 130.857 17.4024 130.857 16.4017L130.792 9.71707C130.786 9.31802 131.236 8.99391 131.236 8.99391C129.871 8.41862 128.936 7.63672 128.936 7.63672ZM128.196 9.86292L126.885 8.86832C126.885 8.86832 126.457 9.05671 126.454 9.86697L126.467 15.2532C126.505 15.8265 126.771 16.0756 127.408 16.0614C127.998 16.0473 128.21 15.8082 128.21 15.2107L128.196 9.86292Z" fill="black"/>
<path fill-rule="evenodd" clip-rule="evenodd" d="M138.62 7.63062C137.923 8.04182 136.528 8.61509 135.864 8.78727C133.493 9.40712 133.463 9.6502 133.463 10.977L133.466 15.4881C133.466 17.5098 135.569 17.21 136.921 17.9392C137.221 16.9304 139.102 15.7495 139.102 15.7495L138.996 15.6603C138.996 15.6603 138.492 15.9824 137.622 15.9561C136.01 15.9095 136.032 14.8278 136.032 14.8278V13.0776C136.032 13.0776 137.896 12.2896 139.178 11.3862C139.69 11.0256 139.833 10.6914 139.855 10.1526C139.893 9.22481 139.191 9.00401 138.62 7.63062ZM136.381 8.90881C136.381 8.90881 136.01 9.15999 136.032 10.2518L136.029 12.871C136.029 12.871 139.232 12.0445 136.381 8.90881Z" fill="black"/>
<path d="M142.852 7.62061L140.76 9.48219C140.76 9.48219 141.979 9.54498 141.979 10.181L142.012 15.4012C141.998 16.0858 141.605 16.2438 141.605 16.2438C141.605 16.2438 142.638 16.9245 143.448 17.9596C144.039 16.9569 145.247 16.1324 145.247 16.1324C145.247 16.1324 144.705 15.7779 144.681 15.2735L144.659 10.5315C144.77 10.0939 145.147 9.87314 145.51 9.86301C145.968 9.85288 146.339 10.1263 146.363 10.4687L146.407 15.3748C146.407 15.8428 146.019 16.0696 146.019 16.0696C146.019 16.0696 146.987 16.9751 147.653 18.0041C148.385 16.7928 149.582 16.1263 149.582 16.1263C149.582 16.1263 148.937 15.7496 148.937 15.0993L148.918 10.3573C149.021 9.93593 149.295 9.76173 149.726 9.70501C150.168 9.64626 150.555 9.89947 150.639 10.2297L150.693 15.9825C150.693 16.9305 151.753 17.3904 152.855 17.8887C153.359 16.8212 154.627 15.9846 154.627 15.9846C154.627 15.9846 153.191 16.098 153.191 15.1115L153.156 9.72121C153.172 9.27557 153.663 9.02034 153.663 9.02034C152.322 8.57469 151.254 7.63478 151.254 7.63478L148.872 9.80427C148.981 8.6699 147.214 7.6672 147.214 7.6672L144.637 10.0089C144.448 8.00345 142.852 7.62061 142.852 7.62061Z" fill="black"/>
<path fill-rule="evenodd" clip-rule="evenodd" d="M160.873 7.6084C157.212 9.71508 156.131 9.38288 156.131 10.4362L156.134 16.0129C156.134 17.2465 157.535 17.2181 158.884 17.9474C159.521 17.0419 160.729 16.2843 161.783 15.7313L161.653 15.626C161.653 15.626 161.054 15.9865 160.182 15.9744C158.399 15.9501 158.591 14.8278 158.591 14.8278L158.594 13.0412C158.594 13.0412 159.987 12.4842 161.32 11.6152C161.851 11.2688 162.238 10.7137 162.271 10.1729C162.336 9.17626 161.529 8.93723 160.873 7.6084ZM158.673 9.00205C158.673 9.00205 158.572 9.16005 158.591 10.2519L158.589 12.8002C158.971 12.626 161.594 11.6131 158.673 9.00205Z" fill="black"/>
<path fill-rule="evenodd" clip-rule="evenodd" d="M184.901 7.5415C182.703 9.21875 179.929 9.09721 179.883 10.7583L179.896 16.0128C179.951 16.9993 181.121 17.1897 182.473 17.919C183.56 16.7238 184.89 16.1526 185.941 15.5996L185.811 15.4942C185.811 15.4942 184.755 16.1121 183.882 16.0999C182.099 16.0756 182.354 14.8278 182.354 14.8278V12.8994C182.354 12.8994 183.489 12.4861 185.082 11.6333C185.654 11.3254 186.161 10.8818 186.196 10.343C186.258 9.34637 185.573 9.21875 184.901 7.5415ZM182.636 8.923C182.636 8.923 182.332 9.16001 182.354 10.2518L182.351 12.709C183.882 12.2106 184.671 10.3065 182.636 8.923Z" fill="black"/>
<path d="M170.746 7.6792L169.01 9.40911C169.01 9.40911 170.307 9.54686 170.259 10.2214L170.283 15.4942C170.307 15.7373 169.82 16.0837 169.82 16.0837C169.82 16.0837 170.933 16.9668 171.37 17.8845C172.204 16.9142 173.407 16.0837 173.407 16.0837C173.407 16.0837 172.76 15.8244 172.76 15.322V10.5496C172.944 10.1343 173.291 9.85881 173.73 9.84058C174.147 9.82437 174.632 10.1181 174.586 10.4462L174.607 15.6502C174.607 17.2768 176.528 17.848 176.528 17.848L178.173 16.0654C178.173 16.0654 177.106 16.0654 177.084 15.4598L177.06 9.90742C177.13 9.40911 177.501 9.14983 177.501 9.14983C176.23 8.769 175.35 7.88582 175.35 7.88582L172.83 9.96212C172.713 8.07623 170.746 7.6792 170.746 7.6792Z" fill="black"/>
<path d="M165.474 7.69751C164.78 8.47536 163.301 9.28968 163.301 9.28968C163.301 9.28968 164.317 9.39704 164.317 10.0351V15.4254C164.338 15.8751 163.737 16.1526 163.737 16.1526C163.737 16.1526 164.78 16.9831 165.449 17.8846C166.259 16.9487 167.373 16.1344 167.373 16.1344C167.373 16.1344 166.79 15.8589 166.815 15.4092L166.793 9.99663C166.815 9.49427 167.349 9.23701 167.349 9.23701C166.354 8.63134 165.474 7.69751 165.474 7.69751Z" fill="black"/>
<path d="M164.089 4.74003C164.089 4.14854 164.731 3.66846 165.522 3.66846C166.314 3.66846 166.956 4.14854 166.956 4.74003C166.956 5.33152 166.314 5.8116 165.522 5.8116C164.731 5.8116 164.089 5.33152 164.089 4.74003Z" fill="black"/>
<path d="M35.4138 23.6314L35.3488 24.4842H35.468C35.5547 23.9332 35.7363 23.8319 36.4733 23.8319H37.9825L34.9315 26.9879V27.079H38.9064L39.1151 26.1614H39.0013C38.7791 26.7428 38.6057 26.8623 37.8822 26.8623H35.9368L39.0663 23.6314H35.4138ZM43.9515 23.6314H40.2991V23.7225C40.7679 23.7164 40.9629 23.838 40.9629 24.1094V26.5524C40.9629 26.8481 40.841 26.994 40.2991 26.9879V27.079H44.0057L44.3797 26.2202H44.2388C43.9651 26.7083 43.5695 26.8785 43.1197 26.8785H41.9682C41.7677 26.8785 41.6864 26.7975 41.6864 26.6071V25.3633H42.8461C43.3148 25.3633 43.4747 25.5132 43.4747 25.8738H43.5966V24.6604H43.4747C43.4747 24.9926 43.3148 25.1628 42.8732 25.1628H41.6864V23.8319H43.1197C43.5424 23.8319 43.789 23.9838 43.8919 24.395H44.0057L43.9515 23.6314ZM45.4255 23.7225C45.981 23.7164 46.1219 23.8481 46.1219 24.154V26.5524C46.1219 26.8886 45.9945 26.9879 45.4255 26.9879V27.079H47.5417V26.9879C47.0052 26.9879 46.8453 26.8927 46.8453 26.5564V24.158C46.8453 23.7934 47.054 23.7164 47.5417 23.7225V23.6314H45.4255V23.7225ZM50.2349 23.8522V26.5524C50.2349 26.8218 50.1347 26.994 49.5657 26.9879V27.079H51.6303V26.9879C51.1724 26.9879 50.9584 26.8987 50.9584 26.5929V23.8522H51.717C52.24 23.8522 52.4811 24.0628 52.5407 24.4153H52.6681L52.6356 23.6314H48.5686L48.5334 24.4153H48.6553C48.6878 24.0527 48.975 23.8522 49.4112 23.8522H50.2349ZM53.3102 23.7225C53.928 23.7124 54.0066 23.8582 54.0066 24.2998V25.9406C54.0066 26.6314 54.5756 27.154 55.9303 27.154C57.1442 27.154 57.7728 26.5969 57.7728 25.8839V24.158C57.7728 23.8278 57.9191 23.7164 58.4827 23.7225V23.6314H56.7947V23.7225C57.3095 23.7063 57.4856 23.8481 57.4856 24.1438V25.8251C57.4856 26.5625 56.9952 26.9393 55.99 26.9393C55.1663 26.9393 54.73 26.5665 54.73 26.0297V24.158C54.73 23.8218 54.8926 23.7266 55.3668 23.7225V23.6314H53.3102V23.7225ZM64.7011 23.6314H63.0049V23.7225H63.1865C63.5739 23.7225 63.6742 23.8278 63.6742 24.1195V26.1756L60.6991 23.6314H59.3606V23.7225C59.7887 23.7225 60.057 23.8278 60.2981 24.1236V26.5625C60.2981 26.8582 60.1301 26.998 59.6017 26.9879V27.079H61.2627V26.9879C60.775 26.994 60.5934 26.8623 60.5934 26.4977V24.3444L63.8828 27.1195H63.9776V24.2087C63.9776 23.7772 64.0372 23.7225 64.5195 23.7225H64.7011V23.6314ZM70.1418 23.5564H70.0145C69.9928 23.7023 69.9115 23.7934 69.7977 23.7934C69.6514 23.7934 69.1637 23.5564 68.386 23.5564C66.9039 23.5564 65.7388 24.3991 65.7388 25.4626C65.7388 26.2505 66.6492 27.154 68.4781 27.154C69.2504 27.154 69.6568 27.0527 70.2935 26.7934V25.8454C70.2935 25.4585 70.3829 25.343 70.9032 25.3187V25.2276H68.9279V25.3187C69.4563 25.3228 69.5701 25.4727 69.5701 25.734V26.7124C69.2097 26.8927 68.9144 26.9636 68.5405 26.9636C67.4729 26.9636 66.5761 26.3154 66.5761 25.3572C66.5761 24.2998 67.4594 23.7468 68.4321 23.7468C69.1501 23.7468 69.9386 24.0628 70.1418 24.6563H70.261L70.1418 23.5564ZM79.2322 23.6314H75.3278V23.7225C75.7559 23.7225 75.97 23.8218 75.97 24.1236V26.5524C75.97 26.842 75.8372 26.998 75.3278 26.9879V27.079H77.3573V26.9879C76.8614 26.994 76.6934 26.8724 76.6934 26.5625V25.3633H77.8856C78.33 25.3633 78.5034 25.5132 78.4817 25.8495H78.6036V24.6746H78.4817C78.5169 25.0615 78.2812 25.1628 77.8125 25.1628H76.6934V23.8035H78.1213C78.7906 23.8035 79.0859 23.9737 79.1537 24.3748H79.281L79.2322 23.6314ZM80.251 23.7225C80.8688 23.7124 80.9474 23.8582 80.9474 24.2998V25.9406C80.9474 26.6314 81.5191 27.154 82.8711 27.154C84.085 27.154 84.7136 26.5969 84.7136 25.8839V24.158C84.7136 23.8278 84.8599 23.7164 85.4235 23.7225V23.6314H83.7355V23.7225C84.2503 23.7063 84.4264 23.8481 84.4264 24.1438V25.8251C84.4264 26.5625 83.936 26.9393 82.9307 26.9393C82.107 26.9393 81.6708 26.5665 81.6708 26.0297V24.158C81.6708 23.8218 81.8334 23.7266 82.3075 23.7225V23.6314H80.251V23.7225ZM82.2208 22.6084C82.0258 22.6084 81.8659 22.7279 81.8659 22.8738C81.8659 23.0196 82.0258 23.1411 82.2208 23.1411C82.4159 23.1411 82.5758 23.0196 82.5758 22.8738C82.5758 22.7279 82.4159 22.6084 82.2208 22.6084ZM83.367 22.6084C83.1719 22.6084 83.012 22.7279 83.012 22.8738C83.012 23.0196 83.1719 23.1411 83.367 23.1411C83.5621 23.1411 83.7219 23.0196 83.7219 22.8738C83.7219 22.7279 83.5621 22.6084 83.367 22.6084ZM89.0814 25.4139C89.8671 25.2681 90.2464 24.946 90.2464 24.5308C90.2464 24.0183 89.6314 23.6314 88.8348 23.6314H86.51V23.7225C86.9977 23.7225 87.1468 23.8684 87.1468 24.1195V26.5827C87.1468 26.8218 87.0384 26.994 86.51 26.9879V27.079H88.5178V26.9879C87.9569 26.998 87.8702 26.7975 87.8702 26.5625V25.4626H88.3119L90.0459 27.079H91.2463V26.9879C90.8778 26.9636 90.5906 26.8177 90.2275 26.4774L89.0814 25.4139ZM87.8702 23.8987C88.0843 23.8278 88.2116 23.8076 88.385 23.8076C88.9621 23.8076 89.4092 24.1297 89.4092 24.5449C89.4092 25.0311 88.8998 25.2924 88.0572 25.2924H87.8702V23.8987ZM95.1995 23.7225C95.6953 23.7225 95.8768 23.8278 95.8768 24.1438V26.5524C95.8768 26.842 95.763 26.9879 95.1995 26.9879V27.079H97.5378C99.1066 27.079 100.226 26.3559 100.226 25.3532C100.226 24.5794 99.4886 23.6314 97.7464 23.6314H95.1995V23.7225ZM96.6003 23.9089C96.8279 23.8522 97.088 23.8218 97.3508 23.8218C98.5484 23.8218 99.3884 24.4599 99.3884 25.3836C99.3884 26.3012 98.5701 26.9028 97.3237 26.9028C97.0501 26.9028 96.8279 26.8785 96.6003 26.8279V23.9089ZM105.122 23.6314H101.469V23.7225C101.941 23.7164 102.133 23.838 102.133 24.1094V26.5524C102.133 26.8481 102.014 26.994 101.469 26.9879V27.079H105.176L105.55 26.2202H105.409C105.135 26.7083 104.74 26.8785 104.293 26.8785H103.138C102.938 26.8785 102.857 26.7975 102.857 26.6071V25.3633H104.016C104.485 25.3633 104.648 25.5132 104.648 25.8738H104.767V24.6604H104.648C104.648 24.9926 104.485 25.1628 104.043 25.1628H102.857V23.8319H104.293C104.713 23.8319 104.962 23.9838 105.062 24.395H105.176L105.122 23.6314ZM106.577 23.7225C107.192 23.7124 107.273 23.8582 107.273 24.2998V25.9406C107.273 26.6314 107.842 27.154 109.197 27.154C110.408 27.154 111.039 26.5969 111.039 25.8839V24.158C111.039 23.8278 111.186 23.7164 111.749 23.7225V23.6314H110.061V23.7225C110.576 23.7063 110.749 23.8481 110.749 24.1438V25.8251C110.749 26.5625 110.262 26.9393 109.256 26.9393C108.433 26.9393 107.997 26.5665 107.997 26.0297V24.158C107.997 23.8218 108.156 23.7266 108.633 23.7225V23.6314H106.577V23.7225ZM114.207 23.8522V26.5524C114.207 26.8218 114.107 26.994 113.538 26.9879V27.079H115.599V26.9879C115.144 26.9879 114.93 26.8987 114.93 26.5929V23.8522H115.686C116.209 23.8522 116.45 24.0628 116.513 24.4153H116.64L116.605 23.6314H112.538L112.505 24.4153H112.624C112.66 24.0527 112.947 23.8522 113.383 23.8522H114.207ZM120.463 23.5564H120.336C120.276 23.682 120.198 23.7428 120.084 23.7428C119.834 23.7428 119.58 23.5564 119.024 23.5564C118.287 23.5564 117.724 23.9433 117.724 24.4497C117.724 24.6665 117.824 24.8954 118.065 25.0777C118.388 25.3187 119.371 25.6489 119.815 25.9791C119.989 26.1108 120.076 26.2607 120.076 26.4166C120.076 26.7326 119.707 26.9636 119.198 26.9636C118.442 26.9636 118.011 26.5524 117.87 25.9953H117.751V27.154H117.87C117.938 27.0284 118.024 26.9737 118.146 26.9737C118.379 26.9737 118.734 27.154 119.325 27.154C120.108 27.154 120.739 26.7266 120.739 26.1999C120.739 25.9852 120.618 25.7441 120.336 25.5335C119.894 25.2033 118.837 24.8366 118.542 24.6158C118.401 24.5105 118.32 24.4153 118.32 24.2532C118.32 23.9737 118.675 23.7468 119.116 23.7468C119.726 23.7468 120.263 24.1641 120.336 24.7009H120.463V23.5564ZM126.286 23.5564H126.172C126.131 23.6982 126.018 23.7833 125.917 23.7833C125.757 23.7833 125.37 23.5564 124.625 23.5564C123.224 23.5564 122.113 24.3748 122.113 25.4038C122.113 26.3863 123.183 27.154 124.544 27.154C125.394 27.154 126.058 26.8684 126.5 26.3052L126.4 26.2566C126.145 26.5767 125.562 26.9393 124.779 26.9393C123.888 26.9393 122.95 26.4977 122.95 25.4382C122.95 24.2249 123.72 23.7468 124.679 23.7468C125.43 23.7468 126.158 24.0831 126.286 24.7212H126.4L126.286 23.5564ZM128.933 25.3633H131.198V26.5524C131.198 26.8825 131.044 26.994 130.515 26.9879V27.079H132.591V26.9879C132.095 26.9879 131.922 26.9028 131.922 26.5564V24.158C131.922 23.8481 132.063 23.7164 132.591 23.7225V23.6314H130.515V23.7225C131.063 23.7124 131.198 23.8582 131.198 24.1479V25.1628H128.933V24.158C128.933 23.8623 129.052 23.7124 129.61 23.7225V23.6314H127.546V23.7225C128.096 23.7124 128.21 23.8825 128.21 24.154V26.5524C128.21 26.8522 128.082 26.9879 127.546 26.9879V27.079H129.61V26.9879C129.106 26.9879 128.933 26.8927 128.933 26.5564V25.3633ZM137.831 26.1614L137.717 26.131C137.381 26.7428 137.034 26.8522 136.39 26.8522H135.452C135.252 26.8522 135.184 26.8035 135.184 26.6516V24.158C135.184 23.8319 135.325 23.7164 135.834 23.7225V23.6314H133.77V23.7225C134.347 23.7124 134.46 23.8785 134.46 24.154V26.5524C134.46 26.8481 134.347 26.998 133.77 26.9879V27.079H137.441L137.831 26.1614ZM140.958 23.4815H140.839L139.069 26.5017C138.855 26.8623 138.733 26.9575 138.446 26.9879V27.079H139.774V26.9879C139.451 26.9879 139.278 26.9089 139.278 26.757C139.278 26.7164 139.292 26.6678 139.319 26.6212L139.725 25.9204H141.581L141.931 26.5118C141.998 26.6212 142.017 26.6881 142.017 26.7468C142.017 26.9028 141.844 26.9879 141.543 26.9879H141.535V27.079H143.424V26.9879C143.109 26.9879 142.968 26.9433 142.781 26.6212L140.958 23.4815ZM140.657 24.3302L141.475 25.7299H139.839L140.657 24.3302ZM149.273 23.6314H147.577V23.7225H147.759C148.149 23.7225 148.249 23.8278 148.249 24.1195V26.1756L145.274 23.6314H143.933V23.7225C144.361 23.7225 144.629 23.8278 144.87 24.1236V26.5625C144.87 26.8582 144.702 26.998 144.174 26.9879V27.079H145.835V26.9879C145.347 26.994 145.166 26.8623 145.166 26.4977V24.3444L148.455 27.1195H148.55V24.2087C148.55 23.7772 148.61 23.7225 149.092 23.7225H149.273V23.6314ZM150.371 23.7225C150.867 23.7225 151.048 23.8278 151.048 24.1438V26.5524C151.048 26.842 150.934 26.9879 150.371 26.9879V27.079H152.709C154.278 27.079 155.397 26.3559 155.397 25.3532C155.397 24.5794 154.66 23.6314 152.918 23.6314H150.371V23.7225ZM151.772 23.9089C151.999 23.8522 152.262 23.8218 152.522 23.8218C153.722 23.8218 154.56 24.4599 154.56 25.3836C154.56 26.3012 153.741 26.9028 152.495 26.9028C152.221 26.9028 151.999 26.8785 151.772 26.8279V23.9089Z" fill="black" stroke="#231F20" stroke-width="0.227384" stroke-miterlimit="3.864"/>
</svg>
