<?xml version="1.0" encoding="utf-8"?>
<!-- Generator: Adobe Illustrator 15.0.2, SVG Export Plug-In . SVG Version: 6.00 Build 0)  -->
<!DOCTYPE svg PUBLIC "-//W3C//DTD SVG 1.1//EN" "http://www.w3.org/Graphics/SVG/1.1/DTD/svg11.dtd">
<svg 
    version="1.1" 
    xmlns="http://www.w3.org/2000/svg" 
    xmlns:xlink="http://www.w3.org/1999/xlink" 
    x="0px" 
    y="0px"
    width="204" 
    height="117" 
    viewBox="0 0 1075.199 325.101" 
    preserveAspectRatio="xMidYMid meet" 
    xml:space="preserve">
  <g id="Ebene_1">
	<g>
		<path fill="#8CB423" d="M123.549,205.069h7.538c2.87,0,5.084,0.103,6.638,0.308c2.924,0.41,5.18,1.547,6.768,3.409
			c1.504,1.794,2.256,4.008,2.256,6.64c0,4.614-2.221,7.818-6.664,9.613l8.613,15.021h-6.383l-7.973-14.1h-5.383v14.1h-5.41V205.069
			z M128.959,221.296h2.436c3.059,0,5.178-0.214,6.357-0.641c1.162-0.41,2.041-1.128,2.639-2.153c0.514-0.889,0.77-1.932,0.77-3.128
			c0-2.307-0.914-3.904-2.742-4.794c-0.906-0.461-2.17-0.734-3.795-0.82c-0.631-0.033-1.803-0.051-3.512-0.051h-2.152V221.296z"/>
		<path fill="#8CB423" d="M159.232,219.604h14.049v4.666h-14.049v11.125h15.766v4.666h-21.174v-34.991h20.713v4.64h-15.305V219.604z
			"/>
		<path fill="#8CB423" d="M202.684,214.759h-5.229c-0.119-1.486-0.564-2.691-1.334-3.614c-1.127-1.333-2.76-2-4.896-2
			c-1.52,0-2.802,0.368-3.844,1.103c-1.23,0.889-1.846,2.025-1.846,3.409c0,1.282,0.648,2.325,1.947,3.128
			c0.803,0.496,2.785,1.41,5.947,2.743c2.717,1.145,4.572,2.008,5.563,2.589c3.129,1.863,4.691,4.589,4.691,8.178
			c0,3.435-1.299,6.126-3.896,8.075c-2.068,1.555-4.768,2.332-8.1,2.332c-4.889,0-8.443-1.589-10.664-4.768
			c-1.248-1.777-1.939-4.179-2.076-7.203h5.254c0.188,2.188,0.787,3.845,1.795,4.973c1.35,1.521,3.281,2.281,5.793,2.281
			c1.846,0,3.375-0.452,4.59-1.358c1.162-0.872,1.742-2.017,1.742-3.435c0-1.504-0.76-2.777-2.281-3.82
			c-0.82-0.563-2.734-1.486-5.742-2.769c-3.572-1.538-5.973-2.871-7.203-3.999c-1.863-1.743-2.795-3.896-2.795-6.46
			c0-3.246,1.291-5.759,3.871-7.536c2.086-1.452,4.563-2.18,7.434-2.18c4.238,0,7.393,1.445,9.459,4.333
			C201.941,210.247,202.548,212.247,202.684,214.759z"/>
		<path fill="#8CB423" d="M215.783,219.604h14.049v4.666h-14.049v11.125h15.766v4.666h-21.174v-34.991h20.713v4.64h-15.305V219.604z
			"/>
		<path fill="#8CB423" d="M246.059,204.967h5.254l11.973,35.094h-5.614l-2.589-8.203h-12.74l-2.641,8.203h-5.563L246.059,204.967z
			 M253.646,227.191l-4.947-15.739l-4.949,15.739H253.646z"/>
		<path fill="#8CB423" d="M268.412,205.069h7.537c2.871,0,5.084,0.103,6.639,0.308c2.922,0.41,5.178,1.547,6.768,3.409
			c1.504,1.794,2.256,4.008,2.256,6.64c0,4.614-2.223,7.818-6.664,9.613l8.613,15.021h-6.385l-7.971-14.1h-5.385v14.1h-5.408
			V205.069z M273.82,221.296h2.437c3.058,0,5.177-0.214,6.356-0.641c1.162-0.41,2.043-1.128,2.641-2.153
			c0.514-0.889,0.77-1.932,0.77-3.128c0-2.307-0.914-3.904-2.744-4.794c-0.906-0.461-2.17-0.734-3.793-0.82
			c-0.633-0.033-1.803-0.051-3.512-0.051h-2.154V221.296z"/>
		<path fill="#8CB423" d="M323.553,215.656h-4.795c-0.837-4.341-3.238-6.512-7.203-6.512c-2.785,0-4.99,1.138-6.613,3.41
			c-1.76,2.512-2.641,5.861-2.641,10.049c0,4.204,0.914,7.571,2.742,10.1c1.59,2.188,3.777,3.281,6.563,3.281
			c4.496,0,7.008-2.803,7.537-8.408h4.922c-0.188,3.145-0.863,5.708-2.025,7.69c-2.118,3.624-5.527,5.435-10.229,5.435
			c-4.221,0-7.689-1.4-10.406-4.204c-3.197-3.281-4.795-7.896-4.795-13.843c0-6.442,1.785-11.305,5.357-14.586
			c2.65-2.427,5.854-3.641,9.613-3.641c2.375,0,4.494,0.514,6.357,1.539C321.254,207.761,323.125,210.99,323.553,215.656z"/>
		<path fill="#8CB423" d="M335.627,219.553h15.098v-14.483h5.41v34.991h-5.41v-16.021h-15.098v16.021h-5.41v-34.991h5.41V219.553z"
			/>
		<path fill="#8CB423" d="M383.357,219.604h14.049v4.666h-14.049v15.791h-5.408v-34.991h20.713v4.64h-15.305V219.604z"/>
		<path fill="#8CB423" d="M417.4,204.428c4.154,0,7.615,1.471,10.383,4.41c3.127,3.298,4.691,7.869,4.691,13.714
			s-1.564,10.425-4.691,13.74c-2.768,2.939-6.221,4.409-10.355,4.409c-4.205,0-7.684-1.47-10.434-4.409
			c-3.129-3.315-4.691-7.98-4.691-13.996c0-2.58,0.418-5.153,1.256-7.716c1.162-3.504,3.246-6.187,6.254-8.05
			C412.068,205.129,414.598,204.428,417.4,204.428z M417.4,209.094c-2.871,0-5.1,1.128-6.689,3.384
			c-1.813,2.563-2.717,5.862-2.717,9.896c0,4.272,0.904,7.699,2.717,10.279c1.572,2.256,3.803,3.384,6.689,3.384
			c2.871,0,5.094-1.128,6.666-3.384c1.812-2.58,2.717-5.947,2.717-10.101c0-4.204-0.905-7.562-2.717-10.074
			C422.441,210.222,420.221,209.094,417.4,209.094z"/>
		<path fill="#8CB423" d="M439.063,205.069h7.537c2.871,0,5.084,0.103,6.639,0.308c2.922,0.41,5.178,1.547,6.768,3.409
			c1.504,1.794,2.256,4.008,2.256,6.64c0,4.614-2.223,7.818-6.664,9.613l8.613,15.021h-6.385l-7.971-14.1h-5.385v14.1h-5.408
			V205.069z M444.471,221.296h2.436c3.059,0,5.178-0.214,6.357-0.641c1.162-0.41,2.043-1.128,2.641-2.153
			c0.514-0.889,0.77-1.932,0.77-3.128c0-2.307-0.914-3.904-2.744-4.794c-0.906-0.461-2.17-0.734-3.793-0.82
			c-0.633-0.033-1.803-0.051-3.512-0.051h-2.154V221.296z"/>
		<path fill="#8CB423" d="M496.611,222.321h11.689v14.483c-3.691,2.599-7.783,3.896-12.279,3.896c-4.545,0-8.193-1.436-10.945-4.307
			c-1.572-1.623-2.727-3.58-3.461-5.87c-0.819-2.529-1.23-5.187-1.23-7.973c0-5.981,1.572-10.604,4.717-13.868
			c2.735-2.837,6.213-4.256,10.434-4.256c2.461,0,4.674,0.53,6.639,1.59c3.35,1.795,5.23,4.982,5.641,9.562h-4.793
			c-0.787-4.289-3.256-6.435-7.41-6.435c-2.836,0-5.033,1-6.588,3c-1.965,2.495-2.947,5.964-2.947,10.407
			c0,4.461,1.008,7.938,3.025,10.434c1.605,1.999,3.922,2.999,6.947,2.999c2.682,0,5.229-0.76,7.639-2.281v-7.127h-7.076V222.321z"
			/>
		<path fill="#8CB423" d="M515.658,205.069h7.537c2.871,0,5.084,0.103,6.639,0.308c2.924,0.41,5.18,1.547,6.768,3.409
			c1.504,1.794,2.256,4.008,2.256,6.64c0,4.614-2.221,7.818-6.664,9.613l8.613,15.021h-6.383l-7.973-14.1h-5.383v14.1h-5.41V205.069
			z M521.068,221.296h2.436c3.059,0,5.178-0.214,6.357-0.641c1.162-0.41,2.041-1.128,2.639-2.153c0.514-0.889,0.77-1.932,0.77-3.128
			c0-2.307-0.914-3.904-2.742-4.794c-0.906-0.461-2.17-0.734-3.795-0.82c-0.631-0.033-1.803-0.051-3.512-0.051h-2.152V221.296z"/>
		<path fill="#8CB423" d="M554.291,204.967h5.255l11.972,35.094h-5.615l-2.588-8.203h-12.74l-2.641,8.203h-5.563L554.291,204.967z
			 M561.879,227.191l-4.947-15.739l-4.949,15.739H561.879z"/>
		<path fill="#8CB423" d="M576.645,205.069h5.819l15.433,26.737v-26.737h5.127v34.991h-5.59l-15.637-26.686v26.686h-5.152V205.069z"
			/>
		<path fill="#8CB423" d="M611.713,205.069h7.102c2.836,0,5.16,0.137,6.973,0.41c3.742,0.581,6.74,2.333,8.996,5.255
			c2.496,3.23,3.744,7.169,3.744,11.817c0,4.769-1.273,8.776-3.82,12.022c-2.307,2.975-5.451,4.7-9.434,5.179
			c-1.623,0.205-4.025,0.308-7.203,0.308h-6.357V205.069z M617.121,235.395h2.82c2.102,0,3.734-0.093,4.896-0.281
			c2.648-0.462,4.641-1.786,5.973-3.974c1.418-2.341,2.127-5.221,2.127-8.639c0-3.503-0.785-6.409-2.357-8.716
			c-1.42-2.103-3.436-3.358-6.051-3.769c-1.178-0.205-3.145-0.308-5.895-0.308h-1.514V235.395z"/>
		<path fill="#8CB423" d="M683.132,215.656h-4.794c-0.838-4.341-3.24-6.512-7.203-6.512c-2.787,0-4.99,1.138-6.615,3.41
			c-1.76,2.512-2.639,5.861-2.639,10.049c0,4.204,0.912,7.571,2.742,10.1c1.59,2.188,3.777,3.281,6.563,3.281
			c4.494,0,7.006-2.803,7.537-8.408h4.922c-0.189,3.145-0.863,5.708-2.025,7.69c-2.119,3.624-5.529,5.435-10.229,5.435
			c-4.221,0-7.691-1.4-10.408-4.204c-3.195-3.281-4.793-7.896-4.793-13.843c0-6.442,1.785-11.305,5.357-14.586
			c2.648-2.427,5.854-3.641,9.613-3.641c2.375,0,4.494,0.514,6.357,1.539C680.832,207.761,682.703,210.99,683.132,215.656z"/>
		<path fill="#8CB423" d="M695.205,219.553h15.098v-14.483h5.41v34.991h-5.41v-16.021h-15.098v16.021h-5.409v-34.991h5.409V219.553z
			"/>
		<path fill="#8CB423" d="M732.76,204.967h5.256l11.971,35.094h-5.613l-2.59-8.203h-12.74l-2.641,8.203h-5.563L732.76,204.967z
			 M740.348,227.191l-4.947-15.739l-4.947,15.739H740.348z"/>
		<path fill="#8CB423" d="M755.113,205.069h5.563v30.325h15.1v4.666h-20.662V205.069z"/>
		<path fill="#8CB423" d="M781.158,205.069h5.563v30.325h15.1v4.666h-20.662V205.069z"/>
		<path fill="#8CB423" d="M812.611,219.604h14.049v4.666h-14.049v11.125h15.767v4.666h-21.175v-34.991h20.713v4.64h-15.305V219.604z
			"/>
		<path fill="#8CB423" d="M834.529,205.069h5.82l15.432,26.737v-26.737h5.127v34.991h-5.588l-15.639-26.686v26.686h-5.152V205.069z"
			/>
		<path fill="#8CB423" d="M883.748,222.321h11.689v14.483c-3.691,2.599-7.783,3.896-12.279,3.896c-4.545,0-8.193-1.436-10.944-4.307
			c-1.573-1.623-2.728-3.58-3.461-5.87c-0.821-2.529-1.231-5.187-1.231-7.973c0-5.981,1.572-10.604,4.717-13.868
			c2.734-2.837,6.213-4.256,10.435-4.256c2.46,0,4.673,0.53,6.638,1.59c3.35,1.795,5.23,4.982,5.641,9.562h-4.793
			c-0.787-4.289-3.256-6.435-7.41-6.435c-2.836,0-5.033,1-6.588,3c-1.965,2.495-2.946,5.964-2.946,10.407
			c0,4.461,1.007,7.938,3.024,10.434c1.605,1.999,3.922,2.999,6.947,2.999c2.682,0,5.229-0.76,7.639-2.281v-7.127h-7.076V222.321z"
			/>
		<path fill="#8CB423" d="M908.205,219.604h14.048v4.666h-14.048v11.125h15.766v4.666h-21.175v-34.991h20.712v4.64h-15.303V219.604z
			"/>
		<path fill="#8CB423" d="M951.654,214.759h-5.229c-0.119-1.486-0.564-2.691-1.334-3.614c-1.127-1.333-2.76-2-4.896-2
			c-1.52,0-2.803,0.368-3.844,1.103c-1.23,0.889-1.846,2.025-1.846,3.409c0,1.282,0.648,2.325,1.947,3.128
			c0.804,0.496,2.785,1.41,5.947,2.743c2.717,1.145,4.572,2.008,5.563,2.589c3.128,1.863,4.69,4.589,4.69,8.178
			c0,3.435-1.299,6.126-3.896,8.075c-2.068,1.555-4.768,2.332-8.1,2.332c-4.889,0-8.443-1.589-10.664-4.768
			c-1.248-1.777-1.939-4.179-2.076-7.203h5.255c0.187,2.188,0.786,3.845,1.794,4.973c1.35,1.521,3.281,2.281,5.793,2.281
			c1.846,0,3.375-0.452,4.59-1.358c1.162-0.872,1.742-2.017,1.742-3.435c0-1.504-0.76-2.777-2.281-3.82
			c-0.82-0.563-2.734-1.486-5.742-2.769c-3.572-1.538-5.973-2.871-7.203-3.999c-1.862-1.743-2.795-3.896-2.795-6.46
			c0-3.246,1.291-5.759,3.871-7.536c2.086-1.452,4.563-2.18,7.434-2.18c4.238,0,7.393,1.445,9.459,4.333
			C950.912,210.247,951.518,212.247,951.654,214.759z"/>
	</g>
	<g>
		<path fill="#005AA0" d="M169.004,119.457V85.039h16.32v85.04h-16.32v-34.302h-29.145v34.302h-16.311v-85.04h16.311v34.418H169.004
			z"/>
		<path fill="#005AA0" d="M257.218,85.039v16.311h-37.31v18.107h32.387v16.32h-32.387v17.991h37.31v16.311h-45.582
			c-0.723,0-1.445-0.244-1.924-0.841l-5.274-5.273c-0.596-0.479-0.84-1.201-0.84-1.924V93.067c0-0.713,0.244-1.436,0.84-1.914
			l5.274-5.274c0.479-0.488,1.201-0.84,1.924-0.84H257.218z"/>
		<path fill="#005AA0" d="M282.445,170.079c-0.723,0-1.445-0.244-1.924-0.841l-5.274-5.273c-0.605-0.479-0.84-1.201-0.84-1.924
			V85.039h16.311v68.729h35.502v16.311H282.445z"/>
		<path fill="#005AA0" d="M413.809,85.039v85.04h-16.311v-47.018l-13.313,27.825c-0.479,0.957-1.436,1.563-2.402,1.563h-9.591
			c-1.085,0-2.042-0.605-2.521-1.563l-13.312-27.825v47.018H340.05v-85.04h16.311l20.627,43.18l20.511-43.18H413.809z"/>
		<path fill="#005AA0" d="M476.472,119.457V85.039h16.32v85.04h-16.32v-34.302h-29.144v34.302h-16.311v-85.04h16.311v34.418H476.472
			z"/>
		<path fill="#005AA0" d="M558.328,89.112l8.516,8.399c2.52,2.52,3.956,5.997,3.956,9.591v40.903c0,3.604-1.437,7.081-3.956,9.601
			l-8.516,8.517c-2.521,2.521-5.998,3.956-9.602,3.956h-19.064c-3.604,0-7.198-1.319-9.719-3.956l-8.398-8.517
			c-2.521-2.52-3.956-5.997-3.956-9.601v-40.903c0-3.594,1.436-7.071,3.956-9.591l8.398-8.399c2.638-2.638,6.114-4.073,9.719-4.073
			h19.064C552.33,85.039,555.69,86.592,558.328,89.112z M554.489,145.848v-36.46c0-0.723-0.361-1.445-0.84-1.924l-5.157-5.274
			c-0.605-0.479-1.318-0.84-2.041-0.84H531.82c-0.723,0-1.318,0.361-1.924,0.84l-5.156,5.274c-0.597,0.479-0.841,1.201-0.841,1.924
			v36.46c0,0.723,0.244,1.318,0.841,1.924l5.156,5.156c0.605,0.597,1.201,0.841,1.924,0.841h14.631c0.723,0,1.436-0.244,2.041-0.841
			l5.157-5.156C554.128,147.166,554.489,146.57,554.489,145.848z"/>
		<path fill="#005AA0" d="M593.273,170.079c-0.723,0-1.445-0.244-1.925-0.841l-5.273-5.273c-0.606-0.479-0.841-1.201-0.841-1.924
			V85.039h16.312v68.729h35.502v16.311H593.273z"/>
		<path fill="#005AA0" d="M635.876,101.35V85.039h61.413v16.311h-22.551v68.729h-16.311V101.35H635.876z"/>
		<path fill="#005AA0" d="M760.432,85.879l5.273,5.274c0.479,0.479,0.841,1.201,0.841,1.914v4.2l-35.747,56.501h35.268v16.311
			h-48.697c-0.723,0-1.445-0.244-1.924-0.841l-5.273-5.273c-0.479-0.479-0.84-1.201-0.84-1.924v-4.913L744.6,101.35h-35.746V85.039
			h49.654C759.23,85.039,759.953,85.391,760.432,85.879z"/>
	</g>
	<rect fill="none" width="1075.199" height="325.101"/>
</g>
<g id="Ebene_2" display="none">
	<path display="inline" fill="#BDC3C5" d="M1058.879,189.439v-34.418h16.32v85.039h-16.32V205.76h-29.145v34.301h-16.311v-85.039
		h16.311v34.418H1058.879z"/>
	<path display="inline" fill="#BDC3C5" d="M997.104,189.439v-34.418h16.32v85.039h-16.32V205.76H967.96v34.301h-16.312v-85.039
		h16.312v34.418H997.104z"/>
	<path display="inline" fill="#BDC3C5" d="M107.229,119.457V85.039h16.32v85.04h-16.32v-34.302H78.085v34.302H61.774v-85.04h16.311
		v34.418H107.229z"/>
	<path display="inline" fill="#BDC3C5" d="M45.454,119.457V85.039h16.32v85.04h-16.32v-34.302H16.311v34.302H0v-85.04h16.311v34.418
		H45.454z"/>
	<path display="inline" fill="#BDC3C5" d="M169.004,34.418V0h16.32v85.039h-16.32V50.738h-29.145v34.301h-16.311V0h16.311v34.418
		H169.004z"/>
	<path display="inline" fill="#BDC3C5" d="M169.004,274.479v-34.418h16.32v85.04h-16.32v-34.302h-29.145v34.302h-16.311v-85.04
		h16.311v34.418H169.004z"/>
	<path display="inline" fill="#BDC3C5" d="M128.959,184.613h14.048v4.666h-14.048v11.125h15.766v4.666h-21.176v-34.991h20.713v4.64
		h-15.303V184.613z"/>
</g>
</svg>
