<?xml version="1.0" encoding="utf-8"?>
<!-- Generator: Adobe Illustrator 25.4.1, SVG Export Plug-In . SVG Version: 6.00 Build 0)  -->
<svg version="1.1" id="Ebene_1" xmlns="http://www.w3.org/2000/svg" xmlns:xlink="http://www.w3.org/1999/xlink" 
     width="150" height="70" 
     viewBox="0 0 500 480.4" 
     style="enable-background:new 0 0 500 480.4;" xml:space="preserve">
<style type="text/css">
	.st0{fill:#FFFFFF;}
	
		.st1{clip-path:url(#SVGID_00000031912501428845586680000009587496696709808560_);fill:url(#SVGID_00000169544518590675149960000012552147052995760297_);}
	
		.st2{clip-path:url(#SVGID_00000128446051597490113980000018421343295090437011_);fill:url(#SVGID_00000060743527037508962630000011652627041904101767_);}
	
		.st3{clip-path:url(#SVGID_00000000911484347921987350000014837403307013326760_);fill:url(#SVGID_00000124861796531077367590000012734424552288185775_);}
	
		.st4{clip-path:url(#SVGID_00000173163148276595458180000017261196591921440653_);fill:url(#SVGID_00000042009350732419453820000010852026529785576108_);}
	
		.st5{clip-path:url(#SVGID_00000012463979200271695650000001379525291404752533_);fill:url(#SVGID_00000032629567340531150660000001937340860439900851_);}
	
		.st6{clip-path:url(#SVGID_00000138563345066825110690000017396196485730407828_);fill:url(#SVGID_00000088844494969023923700000014891199945488675212_);}
	
		.st7{clip-path:url(#SVGID_00000027563594692425241760000002223659311127020471_);fill:url(#SVGID_00000102515967709302940580000001971364767555248271_);}
	
		.st8{clip-path:url(#SVGID_00000134947064462276591030000008215336347876165253_);fill:url(#SVGID_00000065794986045586216560000000118510534585792412_);}
	
		.st9{clip-path:url(#SVGID_00000072979915440929251020000012484241332184175499_);fill:url(#SVGID_00000074429505051440899550000005907924012989799308_);}
	.st10{fill:#DEDC00;}
	
		.st11{clip-path:url(#SVGID_00000102539819955482363400000005065322297670335663_);fill:url(#SVGID_00000066484506088932031540000017389941125073074312_);}
	.st12{clip-path:url(#SVGID_00000000911874953987668860000010045266131416291257_);}
	.st13{clip-path:url(#SVGID_00000159440270776686438510000014455582621542324915_);}
	.st14{clip-path:url(#SVGID_00000093899632922556382490000005670495830482269361_);}
	.st15{fill:#0090D6;}
	.st16{clip-path:url(#SVGID_00000000191729184106917010000008341214262266724996_);}
	.st17{clip-path:url(#SVGID_00000063627482401571011940000000136076024589012158_);}
	.st18{clip-path:url(#SVGID_00000132049431132596080280000016689863693803048070_);}
	
		.st19{clip-path:url(#SVGID_00000163763950111694974560000010689898670212109194_);fill:url(#SVGID_00000178912060445561209090000006641655959234891441_);}
	
		.st20{clip-path:url(#SVGID_00000064334778267397583100000004956643154608286092_);fill:url(#SVGID_00000166665275674753405770000010239602045676715965_);}
	.st21{fill:#484847;}
</style>
<g>
	<rect class="st0" width="50" height="48.4"/>
	<g>
		<defs>
			<path id="SVGID_1_" d="M241.8,229.9c-6.3,3.5-13.8,7.3-18.7,9.3c-6,2.5-10.8,3.9-14.5,4.7c1.5,6.7,3.5,13.4,5.7,16.1
				c0.2,0.3,0.4,0.5,0.7,0.8c6.2-1.5,14.1-3.8,23.6-7.7c4.6-1.8,9.8-3.9,15.4-6.4c0,0-2.1-17.6-9.4-17.6
				C243.7,229.1,242.8,229.4,241.8,229.9"/>
		</defs>
		<clipPath id="SVGID_00000174585076583467943400000006457431147856681869_">
			<use xlink:href="#SVGID_1_"  style="overflow:visible;"/>
		</clipPath>
		
			<linearGradient id="SVGID_00000181787575870556193170000012819644027425498032_" gradientUnits="userSpaceOnUse" x1="-100.754" y1="30.5598" x2="-95.142" y2="30.5598" gradientTransform="matrix(16.4535 0 0 16.4535 1863.028 -257.8361)">
			<stop  offset="0" style="stop-color:#EAEAEA"/>
			<stop  offset="8.327000e-02" style="stop-color:#E4E5E5"/>
			<stop  offset="0.1703" style="stop-color:#D8D9D9"/>
			<stop  offset="0.2619" style="stop-color:#B1B2B2"/>
			<stop  offset="0.3462" style="stop-color:#929392"/>
			<stop  offset="0.3809" style="stop-color:#858685"/>
			<stop  offset="0.4455" style="stop-color:#636362"/>
			<stop  offset="0.5324" style="stop-color:#2B2B2A"/>
			<stop  offset="0.5604" style="stop-color:#181716"/>
			<stop  offset="0.6123" style="stop-color:#4E4E4D"/>
			<stop  offset="0.6631" style="stop-color:#7C7D7C"/>
			<stop  offset="0.7078" style="stop-color:#9D9E9E"/>
			<stop  offset="0.7447" style="stop-color:#B2B3B3"/>
			<stop  offset="0.7692" style="stop-color:#B9BABA"/>
			<stop  offset="0.7735" style="stop-color:#BCBDBD"/>
			<stop  offset="0.8099" style="stop-color:#CFD0D0"/>
			<stop  offset="0.8468" style="stop-color:#DBDBDB"/>
			<stop  offset="0.8846" style="stop-color:#DFDFDF"/>
			<stop  offset="0.982" style="stop-color:#E6E6E6"/>
			<stop  offset="1" style="stop-color:#E6E6E6"/>
		</linearGradient>
		
			<path style="clip-path:url(#SVGID_00000174585076583467943400000006457431147856681869_);fill:url(#SVGID_00000181787575870556193170000012819644027425498032_);" d="
			M208.6,229.1h45.3v31.7h-45.3V229.1z"/>
	</g>
	<g>
		<defs>
			<path id="SVGID_00000123412265807427660040000010550285517993637017_" d="M263.3,216.9c-8.1,5.6-12.5,8.5-29.9,17.5
				c-22.5,11.7-32.7,10.1-32.7,10.1s-6,10.3-0.1,12.9c15.5,6.7,80-27.5,85.8-31.7c4.7-3.3-8-10.4-17.2-10.4
				C266.9,215.4,264.9,215.8,263.3,216.9"/>
		</defs>
		<clipPath id="SVGID_00000023977604583727181150000014874964862501726124_">
			<use xlink:href="#SVGID_00000123412265807427660040000010550285517993637017_"  style="overflow:visible;"/>
		</clipPath>
		
			<linearGradient id="SVGID_00000172432997208384262910000002103849110893497245_" gradientUnits="userSpaceOnUse" x1="-94.6643" y1="30.3301" x2="-89.0522" y2="30.3301" gradientTransform="matrix(16.6977 3.5416 -3.5416 16.6977 1883.3925 58.4623)">
			<stop  offset="0" style="stop-color:#00527A"/>
			<stop  offset="7.001000e-02" style="stop-color:#005B88"/>
			<stop  offset="0.201" style="stop-color:#0074AC"/>
			<stop  offset="0.3094" style="stop-color:#008BCE"/>
			<stop  offset="0.3385" style="stop-color:#008DD1"/>
			<stop  offset="0.4365" style="stop-color:#0090D6"/>
			<stop  offset="0.442" style="stop-color:#0491D7"/>
			<stop  offset="0.4969" style="stop-color:#289EDC"/>
			<stop  offset="0.5481" style="stop-color:#43A7E0"/>
			<stop  offset="0.5939" style="stop-color:#52ADE2"/>
			<stop  offset="0.6298" style="stop-color:#58AFE3"/>
			<stop  offset="1" style="stop-color:#58AFE3"/>
		</linearGradient>
		
			<path style="clip-path:url(#SVGID_00000023977604583727181150000014874964862501726124_);fill:url(#SVGID_00000172432997208384262910000002103849110893497245_);" d="
			M198.8,195.8L301,217.5l-14,66.2L184.8,262L198.8,195.8z"/>
	</g>
	<g>
		<defs>
			<path id="SVGID_00000005242662289195787760000013152719459617917342_" d="M259.3,176c0,0,12.1-15.6,33.9,15.7
				c17.8,25.5,16.6,42,11.4,48.4c-11.1,13.4-45.7-10.2-65.5-54.1l-4.8,2c0,0,34.6,66.1,73.8,65.2c34.9-0.9,12.3-52.8,10.7-56.3
				c-1.6-3.5-17.3-32.6-33.6-36.2c-1.4-0.3-2.7-0.4-4-0.4C267.5,160.2,259.3,176,259.3,176"/>
		</defs>
		<clipPath id="SVGID_00000171687965723368946960000015107207484911103167_">
			<use xlink:href="#SVGID_00000005242662289195787760000013152719459617917342_"  style="overflow:visible;"/>
		</clipPath>
		
			<linearGradient id="SVGID_00000095311153845780810640000009040510125430395574_" gradientUnits="userSpaceOnUse" x1="-105.9952" y1="20.3763" x2="-100.3831" y2="20.3763" gradientTransform="matrix(19.7652 -7.2037 7.2037 19.7652 2174.5701 -936.486)">
			<stop  offset="0" style="stop-color:#A7A7A8"/>
			<stop  offset="1.550000e-03" style="stop-color:#A7A7A8"/>
			<stop  offset="9.923001e-02" style="stop-color:#AAAAAB"/>
			<stop  offset="0.1711" style="stop-color:#B3B3B4"/>
			<stop  offset="0.2346" style="stop-color:#C3C3C4"/>
			<stop  offset="0.293" style="stop-color:#D9DADA"/>
			<stop  offset="0.3242" style="stop-color:#E8E9E9"/>
			<stop  offset="0.4518" style="stop-color:#E0E1E1"/>
			<stop  offset="0.5385" style="stop-color:#D8D8D9"/>
			<stop  offset="0.6209" style="stop-color:#BFBFC0"/>
			<stop  offset="0.7418" style="stop-color:#939494"/>
			<stop  offset="0.8286" style="stop-color:#959696"/>
			<stop  offset="0.8632" style="stop-color:#9C9D9D"/>
			<stop  offset="0.8886" style="stop-color:#A8A9A9"/>
			<stop  offset="0.9092" style="stop-color:#B9BABA"/>
			<stop  offset="0.9231" style="stop-color:#CACACB"/>
			<stop  offset="0.9395" style="stop-color:#D4D5D5"/>
			<stop  offset="0.9649" style="stop-color:#DDDEDE"/>
			<stop  offset="1" style="stop-color:#E0E1E1"/>
		</linearGradient>
		
			<path style="clip-path:url(#SVGID_00000171687965723368946960000015107207484911103167_);fill:url(#SVGID_00000095311153845780810640000009040510125430395574_);" d="
			M204,171.2l126.2-46l43,117.9L247,289L204,171.2z"/>
	</g>
	<g>
		<defs>
			<path id="SVGID_00000008868535928096952980000000978658389820988049_" d="M235.9,190.8c2.1,3.6,6,10.2,11.4,17.9l4.7,0.3
				c-3.8-5.6-7.4-11.8-10.7-18.5L235.9,190.8z"/>
		</defs>
		<clipPath id="SVGID_00000112629548838458933620000007404183494883787186_">
			<use xlink:href="#SVGID_00000008868535928096952980000000978658389820988049_"  style="overflow:visible;"/>
		</clipPath>
		
			<linearGradient id="SVGID_00000056401315880306741750000002270660546267173254_" gradientUnits="userSpaceOnUse" x1="-121.2425" y1="-24.0824" x2="-115.6304" y2="-24.0824" gradientTransform="matrix(-6.8156 -11.805 11.805 -6.8156 -281.3131 -1366.4803)">
			<stop  offset="0" style="stop-color:#EEEEEE"/>
			<stop  offset="1.588000e-02" style="stop-color:#EEEEEE"/>
			<stop  offset="0.1085" style="stop-color:#E6E6E6"/>
			<stop  offset="0.2498" style="stop-color:#D1D2D2"/>
			<stop  offset="0.3736" style="stop-color:#B9BABA"/>
			<stop  offset="0.3831" style="stop-color:#B5B6B6"/>
			<stop  offset="0.4846" style="stop-color:#8F8F8F"/>
			<stop  offset="0.5655" style="stop-color:#777777"/>
			<stop  offset="0.6154" style="stop-color:#6E6E6E"/>
			<stop  offset="0.6707" style="stop-color:#7E7E7E"/>
			<stop  offset="0.7788" style="stop-color:#A7A8A8"/>
			<stop  offset="0.8901" style="stop-color:#D8D9D9"/>
			<stop  offset="0.9321" style="stop-color:#DFDFDF"/>
			<stop  offset="1" style="stop-color:#E4E4E4"/>
		</linearGradient>
		
			<path style="clip-path:url(#SVGID_00000112629548838458933620000007404183494883787186_);fill:url(#SVGID_00000056401315880306741750000002270660546267173254_);" d="
			M239.9,215.9l-12-20.8l20.1-11.6l12,20.8L239.9,215.9z"/>
	</g>
	<g>
		<defs>
			<path id="SVGID_00000182496685338463122780000003695292833927831693_" d="M260.5,173.9l0.8,0.3c4.3-3,15.3-6.2,31.8,17.5
				c8.8,12.6,12.9,22.9,14.3,31l16.5,23.1c9.9-14.7-3.9-46.2-5.1-48.9c-1.6-3.5-17.3-32.6-33.6-36.2c-1.4-0.3-2.7-0.4-4-0.4
				C270.6,160.2,263.3,169.6,260.5,173.9"/>
		</defs>
		<clipPath id="SVGID_00000150783160541592958900000010112466380030659972_">
			<use xlink:href="#SVGID_00000182496685338463122780000003695292833927831693_"  style="overflow:visible;"/>
		</clipPath>
		
			<linearGradient id="SVGID_00000052821434549305039640000005037584820513461652_" gradientUnits="userSpaceOnUse" x1="-96.2931" y1="17.9646" x2="-90.681" y2="17.9646" gradientTransform="matrix(26.5418 -1.158000e-02 1.158000e-02 26.5418 2805.5757 -274.9537)">
			<stop  offset="0" style="stop-color:#F6F6F6"/>
			<stop  offset="5.489999e-03" style="stop-color:#F6F6F6"/>
			<stop  offset="6.440000e-02" style="stop-color:#E8E8E8"/>
			<stop  offset="0.1749" style="stop-color:#C4C5C5"/>
			<stop  offset="0.2418" style="stop-color:#ABACAC"/>
			<stop  offset="0.2686" style="stop-color:#9F9F9F"/>
			<stop  offset="0.3712" style="stop-color:#737372"/>
			<stop  offset="0.4231" style="stop-color:#626261"/>
			<stop  offset="0.4817" style="stop-color:#676766"/>
			<stop  offset="0.5507" style="stop-color:#747574"/>
			<stop  offset="0.5714" style="stop-color:#7A7B7A"/>
			<stop  offset="0.6614" style="stop-color:#A7A8A8"/>
			<stop  offset="0.7363" style="stop-color:#C9CACA"/>
			<stop  offset="0.8306" style="stop-color:#E2E3E3"/>
			<stop  offset="0.9327" style="stop-color:#F7F7F7"/>
			<stop  offset="1" style="stop-color:#FFFFFF"/>
		</linearGradient>
		
			<path style="clip-path:url(#SVGID_00000150783160541592958900000010112466380030659972_);fill:url(#SVGID_00000052821434549305039640000005037584820513461652_);" d="
			M260.5,160.2h73.3v85.6h-73.3V160.2z"/>
	</g>
	<g>
		<defs>
			<path id="SVGID_00000155113036633713448960000008587540535572132014_" d="M303.6,210.2c2,4.6,3.2,8.8,3.8,12.5l16.5,23.1
				c8.1-12.1,0.2-35.6-3.5-45L303.6,210.2z"/>
		</defs>
		<clipPath id="SVGID_00000114038310450655305400000007137425545642228135_">
			<use xlink:href="#SVGID_00000155113036633713448960000008587540535572132014_"  style="overflow:visible;"/>
		</clipPath>
		
			<linearGradient id="SVGID_00000080909325969327329510000003386025283033964163_" gradientUnits="userSpaceOnUse" x1="-66.8446" y1="30.7372" x2="-61.2325" y2="30.7372" gradientTransform="matrix(8.1396 8.7286 -8.7286 8.1396 1107.7109 532.3418)">
			<stop  offset="0" style="stop-color:#EEEEEE"/>
			<stop  offset="6.930000e-03" style="stop-color:#E8E8E8"/>
			<stop  offset="8.481000e-02" style="stop-color:#ACACAC"/>
			<stop  offset="0.151" style="stop-color:#80807F"/>
			<stop  offset="0.2021" style="stop-color:#656564"/>
			<stop  offset="0.232" style="stop-color:#5B5B5A"/>
			<stop  offset="0.4199" style="stop-color:#585857"/>
			<stop  offset="0.663" style="stop-color:#7F7F7F"/>
			<stop  offset="0.729" style="stop-color:#8B8B8B"/>
			<stop  offset="0.8484" style="stop-color:#AAABAB"/>
			<stop  offset="0.9945" style="stop-color:#D9DADA"/>
			<stop  offset="1" style="stop-color:#D9DADA"/>
		</linearGradient>
		
			<path style="clip-path:url(#SVGID_00000114038310450655305400000007137425545642228135_);fill:url(#SVGID_00000080909325969327329510000003386025283033964163_);" d="
			M318.8,186.5l35.7,38.3l-37.7,35.1l-35.7-38.3L318.8,186.5z"/>
	</g>
	<g>
		<defs>
			<path id="SVGID_00000019668419097026010170000017242495741618910655_" d="M259.8,219.4c0,0,9.8,11.4,16.6,16.1
				c9.1-5.1,18.5-11,27.4-17.8l-35.3-4.2C263.3,217.4,259.8,219.4,259.8,219.4"/>
		</defs>
		<clipPath id="SVGID_00000018198751514609198470000002439135541438181034_">
			<use xlink:href="#SVGID_00000019668419097026010170000017242495741618910655_"  style="overflow:visible;"/>
		</clipPath>
		
			<linearGradient id="SVGID_00000079480166536183840540000013873394409771660700_" gradientUnits="userSpaceOnUse" x1="-100.754" y1="29.3145" x2="-95.142" y2="29.3145" gradientTransform="matrix(16.4535 0 0 16.4535 1863.028 -257.8361)">
			<stop  offset="0" style="stop-color:#EAEAEA"/>
			<stop  offset="8.327000e-02" style="stop-color:#E4E5E5"/>
			<stop  offset="0.1703" style="stop-color:#D8D9D9"/>
			<stop  offset="0.2505" style="stop-color:#B1B2B2"/>
			<stop  offset="0.3242" style="stop-color:#929392"/>
			<stop  offset="0.3789" style="stop-color:#7B7C7B"/>
			<stop  offset="0.5" style="stop-color:#4C4C4B"/>
			<stop  offset="0.5604" style="stop-color:#3A3A39"/>
			<stop  offset="0.6278" style="stop-color:#747473"/>
			<stop  offset="0.6854" style="stop-color:#9E9E9E"/>
			<stop  offset="0.7302" style="stop-color:#B7B8B8"/>
			<stop  offset="0.7569" style="stop-color:#C1C2C2"/>
			<stop  offset="0.7921" style="stop-color:#D0D0D0"/>
			<stop  offset="0.8375" style="stop-color:#DBDBDB"/>
			<stop  offset="0.8846" style="stop-color:#DFDFDF"/>
			<stop  offset="0.982" style="stop-color:#E6E6E6"/>
			<stop  offset="1" style="stop-color:#E6E6E6"/>
		</linearGradient>
		
			<path style="clip-path:url(#SVGID_00000018198751514609198470000002439135541438181034_);fill:url(#SVGID_00000079480166536183840540000013873394409771660700_);" d="
			M259.8,213.5h44v22h-44V213.5z"/>
	</g>
	<g>
		<defs>
			<path id="SVGID_00000020363530579174952620000003936827180422163586_" d="M259.3,97c-13.5,3.9-29.1,14.1-35.6,29.9
				c-3.8,9.2-4.8,21.3,0.4,34c4.6,11.3,1.8-7.7,1.8-7.7c-0.4-2.7-2.7-22.6,18.4-35.8c9.8-6.1,22.1-10.1,36.6-8.9
				c5.5,0.5,11,1.5,16.4,3.8c14.2,6.2,15.3,15.7,15.7,19.7c0,0,0.9-3.2-0.1-9.3c-2.4-15.5-16.1-28.2-37-28.2
				C270.9,94.5,265.3,95.3,259.3,97"/>
		</defs>
		<clipPath id="SVGID_00000181800773513848351540000005100437998016572853_">
			<use xlink:href="#SVGID_00000020363530579174952620000003936827180422163586_"  style="overflow:visible;"/>
		</clipPath>
		
			<linearGradient id="SVGID_00000175322672914742682210000014336104073462241982_" gradientUnits="userSpaceOnUse" x1="-114.6604" y1="8.6253" x2="-109.0483" y2="8.6253" gradientTransform="matrix(11.3588 -16.2371 16.2371 11.3588 1399.0931 -1784.0209)">
			<stop  offset="0" style="stop-color:#DADBDB"/>
			<stop  offset="5.489999e-03" style="stop-color:#DADBDB"/>
			<stop  offset="1.680000e-02" style="stop-color:#E3E3E3"/>
			<stop  offset="4.516000e-02" style="stop-color:#F3F3F3"/>
			<stop  offset="7.728000e-02" style="stop-color:#FCFCFC"/>
			<stop  offset="0.1209" style="stop-color:#FFFFFF"/>
			<stop  offset="0.2364" style="stop-color:#CECECE"/>
			<stop  offset="0.4084" style="stop-color:#898989"/>
			<stop  offset="0.489" style="stop-color:#6E6E6E"/>
			<stop  offset="0.5369" style="stop-color:#717171"/>
			<stop  offset="0.5784" style="stop-color:#7C7C7C"/>
			<stop  offset="0.6174" style="stop-color:#8D8E8E"/>
			<stop  offset="0.65" style="stop-color:#A2A3A3"/>
			<stop  offset="0.7802" style="stop-color:#D0D0D1"/>
			<stop  offset="0.8038" style="stop-color:#DDDDDE"/>
			<stop  offset="0.8489" style="stop-color:#F0F0F0"/>
			<stop  offset="0.8954" style="stop-color:#FBFBFB"/>
			<stop  offset="0.9451" style="stop-color:#FFFFFF"/>
			<stop  offset="1" style="stop-color:#FFFFFF"/>
		</linearGradient>
		
			<path style="clip-path:url(#SVGID_00000181800773513848351540000005100437998016572853_);fill:url(#SVGID_00000175322672914742682210000014336104073462241982_);" d="
			M182.4,146.6l67.7-96.7L350.4,120l-67.7,96.7L182.4,146.6z"/>
	</g>
	<g>
		<defs>
			<path id="SVGID_00000129925582994608379320000001534971535548777876_" d="M259.3,97c-13.5,3.9-29.1,14.1-35.6,29.9
				c-2.2,5.4-3.5,11.9-3.1,18.8l5,1.7c0.3-7.5,3.4-20.6,18.7-30.1c3.5-2.2,7.3-4.1,11.4-5.6l7.5-15.8
				C261.9,96.3,260.6,96.6,259.3,97"/>
		</defs>
		<clipPath id="SVGID_00000016043681758391374950000001113763097193515939_">
			<use xlink:href="#SVGID_00000129925582994608379320000001534971535548777876_"  style="overflow:visible;"/>
		</clipPath>
		
			<linearGradient id="SVGID_00000135683558528870280120000004928627244488653484_" gradientUnits="userSpaceOnUse" x1="-112.6259" y1="5.7129" x2="-107.0138" y2="5.7129" gradientTransform="matrix(12.1404 -19.5995 19.5995 12.1404 1461.6348 -2097.8943)">
			<stop  offset="0" style="stop-color:#FFFFFF"/>
			<stop  offset="0.1768" style="stop-color:#FFFFFF"/>
			<stop  offset="0.2572" style="stop-color:#DEDEDF"/>
			<stop  offset="0.3429" style="stop-color:#C2C2C3"/>
			<stop  offset="0.3923" style="stop-color:#B7B7B8"/>
			<stop  offset="0.3925" style="stop-color:#B7B7B8"/>
			<stop  offset="0.4889" style="stop-color:#828283"/>
			<stop  offset="0.5359" style="stop-color:#6E6E6E"/>
			<stop  offset="0.5756" style="stop-color:#676766"/>
			<stop  offset="0.6298" style="stop-color:#626261"/>
			<stop  offset="0.7033" style="stop-color:#858585"/>
			<stop  offset="0.7459" style="stop-color:#9C9C9C"/>
			<stop  offset="0.7821" style="stop-color:#B4B4B4"/>
			<stop  offset="0.8277" style="stop-color:#CBCCCC"/>
			<stop  offset="0.8766" style="stop-color:#DBDCDC"/>
			<stop  offset="0.9307" style="stop-color:#E5E6E6"/>
			<stop  offset="1" style="stop-color:#E8E9E9"/>
		</linearGradient>
		
			<path style="clip-path:url(#SVGID_00000016043681758391374950000001113763097193515939_);fill:url(#SVGID_00000135683558528870280120000004928627244488653484_);" d="
			M197.2,133.2l35-56.4l54.1,33.5l-35,56.4L197.2,133.2z"/>
	</g>
	<path class="st10" d="M320.9,202.9c10.4,27.1,8.8,49.7-12.5,49.7c-18.1,0-37.8-14.7-53.9-34.5c-4.2-5.3-13.5-17.1-21.4-34.6
		c-4.8-10.7-46.6-3.9-34.2,20.6c9.5,18.8,21.3,35.6,27.7,43.5c17.6,21.5,46.5,54.4,78.4,47.3c30.7-6.9,30.8-59,17.6-93.7
		C322,201.8,320.9,202.9,320.9,202.9"/>
	<g>
		<defs>
			<path id="SVGID_00000024705209010594011610000004736175322733413554_" d="M197,192.2c0.1,4.6,1.1,9.1,3.3,13.2
				c1.9,4.3,4.6,9.6,7.8,15.3c7,11.7,14.1,21.4,18.5,26.9c14.3,17.4,36,42.4,60.8,47.4c6-1.4,0.5-13.3-3.2-20.8
				c-6.7-13.4-12.3-36.2-12.9-38.6c-5.8-5.1-11.5-11-16.8-17.5c-4.2-5.3-13.5-17.1-21.4-34.6c-1.5-3.3-6.4-4.9-12.2-4.9
				C211.3,178.6,199.4,183.1,197,192.2"/>
		</defs>
		<clipPath id="SVGID_00000081640219199078346880000006755238924477366462_">
			<use xlink:href="#SVGID_00000024705209010594011610000004736175322733413554_"  style="overflow:visible;"/>
		</clipPath>
		
			<linearGradient id="SVGID_00000147940663595533303310000003409120982488339080_" gradientUnits="userSpaceOnUse" x1="-112.5464" y1="-7.1399" x2="-106.9343" y2="-7.1399" gradientTransform="matrix(-4.6885 -26.5221 26.5221 -4.6885 -81.6685 -2716.9536)">
			<stop  offset="0" style="stop-color:#DEDC00"/>
			<stop  offset="0.1989" style="stop-color:#DEDC00"/>
			<stop  offset="0.2313" style="stop-color:#D2D816"/>
			<stop  offset="0.2933" style="stop-color:#BFD03C"/>
			<stop  offset="0.326" style="stop-color:#B7CD4A"/>
			<stop  offset="0.4144" style="stop-color:#8DBF79"/>
			<stop  offset="0.4276" style="stop-color:#81BB7D"/>
			<stop  offset="0.496" style="stop-color:#4AAB92"/>
			<stop  offset="0.555" style="stop-color:#229EA1"/>
			<stop  offset="0.6015" style="stop-color:#0997AB"/>
			<stop  offset="0.6298" style="stop-color:#0094AE"/>
			<stop  offset="0.8084" style="stop-color:#00728E"/>
			<stop  offset="1" style="stop-color:#004968"/>
		</linearGradient>
		
			<path style="clip-path:url(#SVGID_00000081640219199078346880000006755238924477366462_);fill:url(#SVGID_00000147940663595533303310000003409120982488339080_);" d="
			M199.9,311.5L177,182.1l113.5-20.1l22.9,129.4L199.9,311.5z"/>
	</g>
	<g>
		<defs>
			<path id="SVGID_00000103264510718663326070000004528521599082415266_" d="M209.9,223.6c6.4,10.4,12.7,19,16.7,24
				c7.1,8.7,16.1,19.3,26.4,28.3l6.4-51.9c-1.7-1.9-3.4-3.9-5-5.9c-3.4-4.3-10.1-12.7-16.7-25L209.9,223.6z"/>
		</defs>
		<clipPath id="SVGID_00000013193432250515071800000001916518815137312392_">
			<use xlink:href="#SVGID_00000103264510718663326070000004528521599082415266_"  style="overflow:visible;"/>
		</clipPath>
		<g style="clip-path:url(#SVGID_00000013193432250515071800000001916518815137312392_);">
			<g>
				<defs>
					
						<rect id="SVGID_00000162321524685790229860000007648496903051069629_" x="197.2" y="187.1" transform="matrix(0.9395 -0.3424 0.3424 0.9395 -66.1208 94.5338)" width="75" height="94.8"/>
				</defs>
				<clipPath id="SVGID_00000017516425902034776010000014930275068028521869_">
					<use xlink:href="#SVGID_00000162321524685790229860000007648496903051069629_"  style="overflow:visible;"/>
				</clipPath>
				<g style="clip-path:url(#SVGID_00000017516425902034776010000014930275068028521869_);">
					<g>
						<defs>
							
								<rect id="SVGID_00000033348320150953281230000015206594789627370655_" x="166.7" y="163" transform="matrix(0.9395 -0.3424 0.3424 0.9395 -66.1229 94.5372)" width="136" height="143.1"/>
						</defs>
						<clipPath id="SVGID_00000064332488775286801910000017664954565213306274_">
							<use xlink:href="#SVGID_00000033348320150953281230000015206594789627370655_"  style="overflow:visible;"/>
						</clipPath>
						<g style="clip-path:url(#SVGID_00000064332488775286801910000017664954565213306274_);">
							
								<image style="overflow:visible;enable-background:new    ;" width="1017" height="1038" xlink:href="DFFF73F2359A3699.jpg"  transform="matrix(0.174 0 0 0.174 146.1581 144.227)">
							</image>
						</g>
					</g>
				</g>
			</g>
		</g>
	</g>
	<path class="st15" d="M233,183.5c-4.8-10.7-9.5-23.6-11.3-38.7c-2.7-23.2,18.9-44.5,43.7-48.2c25.3-3.8,47.6,6.6,47.6,35.7
		c0,40.5-28.9,71.1-53.4,87c4.8,5.8,8.6,9.6,13.6,13.8c1.6-0.8,2.9-1.6,4.5-2.4c37.8-20.7,69.4-52.3,73.3-86.7
		c4.4-39-19.1-56.2-38.3-62.1c-26.1-8.1-50.9-1.6-63.1,3.3c-17.1,6.8-32.5,18.2-43.5,32.5c-22.9,29.7-19.4,61.2-7.3,86.5
		C208.2,223.6,240.9,201,233,183.5"/>
	<g>
		<defs>
			<path id="SVGID_00000063592637817018918790000003484047943441447355_" d="M249.6,85.1c-17.1,6.8-32.5,18.2-43.5,32.5
				c-22.9,29.7-19.4,61.2-7.3,86.5c7.6,15.8,30.5,3.9,34.7-10.4c0.8-3.2,0.7-6.5-0.7-9.6c-0.1-0.2-0.2-0.5-0.3-0.7
				c-1.3-3-2.5-6.1-3.6-9.5c-3.2-8.6-6-18.2-7.3-29c-2.7-23.2,18.9-44.5,43.7-48.2c25.3-3.8,47.6,6.6,47.6,35.7
				c0,40.5-28.9,71.1-53.4,87c4.8,5.8,8.6,9.6,13.6,13.8c1.6-0.8,2.9-1.6,4.5-2.4c37.8-20.7,69.4-52.3,73.3-86.7
				c4.4-39-19.1-56.1-38.3-62.1c-8.9-2.8-17.7-3.8-25.9-3.8C271.1,78.1,257.6,82,249.6,85.1"/>
		</defs>
		<clipPath id="SVGID_00000069374496324151393960000010096195736127498371_">
			<use xlink:href="#SVGID_00000063592637817018918790000003484047943441447355_"  style="overflow:visible;"/>
		</clipPath>
		<g style="clip-path:url(#SVGID_00000069374496324151393960000010096195736127498371_);">
			<g>
				<defs>
					<rect id="SVGID_00000032623840716565642090000004536021240034215867_" x="183.2" y="78.1" width="172.2" height="155.1"/>
				</defs>
				<clipPath id="SVGID_00000005964654279259169980000003479647095581049279_">
					<use xlink:href="#SVGID_00000032623840716565642090000004536021240034215867_"  style="overflow:visible;"/>
				</clipPath>
				<g style="clip-path:url(#SVGID_00000005964654279259169980000003479647095581049279_);">
					<g>
						<defs>
							<rect id="SVGID_00000060753184062587969920000011092877374031018890_" x="183.2" y="78.1" width="172.2" height="155.1"/>
						</defs>
						<clipPath id="SVGID_00000101800188930630555540000006777381950109945747_">
							<use xlink:href="#SVGID_00000060753184062587969920000011092877374031018890_"  style="overflow:visible;"/>
						</clipPath>
						<g style="clip-path:url(#SVGID_00000101800188930630555540000006777381950109945747_);">
							
								<image style="overflow:visible;enable-background:new    ;" width="496" height="446" xlink:href="DFFF73F2359A369B.jpg"  transform="matrix(0.3479 0 0 0.3479 182.9124 77.9181)">
							</image>
						</g>
					</g>
				</g>
			</g>
		</g>
	</g>
	<g>
		<defs>
			<path id="SVGID_00000106105435130912438990000002354633436121699764_" d="M202,132.3c-2.9,2.5-5.7,5-8.2,7.4
				c-6,16.4-5.5,32.8-1.3,47.8l31.2-30.8c-0.9-3.8-1.6-7.7-2-11.8c-2.1-17.5,9.8-34,26.5-42.6C238,106.9,220.6,116.2,202,132.3"/>
		</defs>
		<clipPath id="SVGID_00000134215309392427469350000016360216494722545805_">
			<use xlink:href="#SVGID_00000106105435130912438990000002354633436121699764_"  style="overflow:visible;"/>
		</clipPath>
		
			<linearGradient id="SVGID_00000073680018263934004180000011036654990460139659_" gradientUnits="userSpaceOnUse" x1="-98.6253" y1="17.9985" x2="-93.0132" y2="17.9985" gradientTransform="matrix(24.1197 2.0996 -2.0996 24.1197 2562.1316 -88.491)">
			<stop  offset="0" style="stop-color:#00172D"/>
			<stop  offset="4.972000e-02" style="stop-color:#00172D"/>
			<stop  offset="0.3325" style="stop-color:#00537B"/>
			<stop  offset="0.3481" style="stop-color:#00567F"/>
			<stop  offset="0.4069" style="stop-color:#006697"/>
			<stop  offset="0.478" style="stop-color:#0075AD"/>
			<stop  offset="0.5462" style="stop-color:#007EBA"/>
			<stop  offset="0.6077" style="stop-color:#0081BF"/>
			<stop  offset="0.831" style="stop-color:#0088CA"/>
			<stop  offset="0.9945" style="stop-color:#0090D6"/>
			<stop  offset="1" style="stop-color:#0090D6"/>
		</linearGradient>
		
			<path style="clip-path:url(#SVGID_00000134215309392427469350000016360216494722545805_);fill:url(#SVGID_00000073680018263934004180000011036654990460139659_);" d="
			M188.2,97l67.4,5.9l-7.8,89.8l-67.4-5.9L188.2,97z"/>
	</g>
	<g>
		<defs>
			<path id="SVGID_00000114039168071236490580000011683024548800504739_" d="M248,132.1c-9.6,0.3-18.6,6.7-28.8,15
				c-9.4,7.7-21.6,19.9-32.3,32c-16.7,18.9-30.6,40-36.7,55.9c-8.1,21,5.4,26.6,18.1,28.1c11.3,1.3,21.9,1.3,35.3-0.3
				c0,0-7.2,0.2-7.8-5.4c-1.2-8.7,25.1-43.4,37.8-57c12.9-13.9,25.8-24.6,29.1-27.4c4.7-3.8,11.7-16.3,24.3-11.7
				c2.8,1.2,7.2,3.2,15.8,11.8c0.4-0.8,1.1-2.1,1.5-3c-1.5-1.9-8.1-10.6-18.8-19.8c-10.6-9.3-25-18.3-36.7-18.3
				C248.5,132.1,248.2,132.1,248,132.1"/>
		</defs>
		<clipPath id="SVGID_00000162323653332505104330000009668992644957708723_">
			<use xlink:href="#SVGID_00000114039168071236490580000011683024548800504739_"  style="overflow:visible;"/>
		</clipPath>
		
			<linearGradient id="SVGID_00000178186151604820667320000017201848053295256236_" gradientUnits="userSpaceOnUse" x1="-108.6127" y1="3.7413" x2="-103.0006" y2="3.7413" gradientTransform="matrix(17.1893 -29.8027 29.8027 17.1893 1931.1781 -3020.7371)">
			<stop  offset="0" style="stop-color:#ADA900"/>
			<stop  offset="0.28" style="stop-color:#B8B700"/>
			<stop  offset="0.3708" style="stop-color:#C5C300"/>
			<stop  offset="0.5801" style="stop-color:#E0DC00"/>
			<stop  offset="0.9945" style="stop-color:#DEDC00"/>
			<stop  offset="1" style="stop-color:#DEDC00"/>
		</linearGradient>
		
			<path style="clip-path:url(#SVGID_00000162323653332505104330000009668992644957708723_);fill:url(#SVGID_00000178186151604820667320000017201848053295256236_);" d="
			M84.8,231.4l97.8-169.5l179,103.2l-97.8,169.5L84.8,231.4z"/>
	</g>
	<path class="st21" d="M121.3,348.3v38.9h12.6v-44.5L121.3,348.3z M99.7,369.4c0,8.4-6,8.5-8.7,8.5h-7v-17.1h7.3
		C97.7,360.9,99.7,364.1,99.7,369.4 M99,343.9c0,5.8-3.8,7.7-6.6,7.7H84v-15.3h7.8C96,336.3,99,339.5,99,343.9 M101,356v-0.2
		c6.8-1.3,10.2-6.3,10.2-13.2c0-12.8-7.9-15.6-17.5-15.6H71.4v60.1h22.2c5.3,0,18.6-0.7,18.6-15.9C112.2,363,109.9,357.3,101,356
		 M133.9,335.1V327h-12.6v13.7L133.9,335.1z M145.5,387.2h31.4v-10h-18.8V327h-12.6L145.5,387.2z M193.9,336.3h18.7V327h-31.2v60.1
		h12.6v-26.2h17.8v-9.2h-17.8V336.3z M219.6,387.2h12.6V327h-12.6V387.2z M272.2,387.2h16.6V327H277v41.6h-0.2l-16-41.6h-17v60.1
		h11.7v-44h0.2L272.2,387.2z M338.5,345.5c0.8-12.6-6.9-19.5-19.2-19.5c-20.6,0-21.3,15.4-21.3,30.6c0,22.8,2.4,31.6,23.6,31.6
		c5,0,13.6-1.3,17-2v-30.5h-19.4v9.2h6.8v13.3c-1.9,0.7-4.2,1.2-6.3,1.2c-7.2,0-9-3.3-9-22.2c0-11.7,0-22.2,7.8-22.2
		c6.7,0,7.6,4.9,7.5,10.5H338.5z M348.6,387.2h33.5v-9.2h-20.9v-17.6h18.7v-9.2h-18.7v-14.8h20.2V327h-32.8V387.2z M414.7,344.2
		c0,3.8-1.4,8.8-6.4,8.8h-5.6v-16.7h5.6C412.2,336.3,414.7,338.4,414.7,344.2 M427.4,342.8c0-10.2-5.5-15.7-14.1-15.7h-23.2v60.1
		h12.6v-24.9h3.2c9.7,0,9,6.1,9,13.2c0,3.9-0.3,8,1.3,11.7h12.3c-1.2-2.5-1.4-13.8-1.4-17.7c0-10.8-8.2-11.5-10.9-11.8v-0.2
		C424.4,356.2,427.4,350.4,427.4,342.8"/>
</g>
</svg>
